<svg width="20" height="21" viewBox="0 0 20 21" fill="none" xmlns="http://www.w3.org/2000/svg">
<path fill-rule="evenodd" clip-rule="evenodd" d="M15.0998 19.89C15.2421 19.9629 15.3999 20.0006 15.5598 20C15.7807 20.0102 15.9987 19.9469 16.1798 19.82C16.4966 19.593 16.6527 19.2028 16.5798 18.82L15.5798 13.19L19.6998 9.18996C19.9617 8.92856 20.0579 8.54387 19.9498 8.18996C19.8315 7.82738 19.5174 7.56363 19.1398 7.50996L13.4398 6.67996L10.8998 1.55996C10.7327 1.21497 10.3831 0.99585 9.99979 0.99585C9.61647 0.99585 9.26688 1.21497 9.09979 1.55996L6.58979 6.68996L0.889788 7.51996C0.512211 7.57363 0.198032 7.83738 0.0797883 8.19996C-0.0283273 8.55387 0.0678446 8.93856 0.329788 9.19996L4.44979 13.2L3.44979 18.83C3.38302 19.2058 3.53605 19.5869 3.84422 19.8122C4.15238 20.0374 4.56192 20.0676 4.89979 19.89L9.99979 17.22L15.0998 19.89ZM10.4598 15.21C10.3187 15.1338 10.1601 15.0959 9.99979 15.1C9.83263 15.0667 9.65953 15.0806 9.49979 15.14L5.72979 17.14L6.44979 12.98C6.50651 12.6536 6.39791 12.3203 6.15979 12.09L3.15979 9.15996L7.35979 8.53996C7.68296 8.49321 7.96295 8.29161 8.10979 7.99996L9.99979 4.24996L11.8898 7.99996C12.0237 8.28908 12.2874 8.49707 12.5998 8.55996L16.7998 9.17996L13.7998 12.11C13.5617 12.3403 13.4531 12.6736 13.5098 13L14.2298 17.21L10.4598 15.21Z" fill="#A7AEB5"/>
</svg>
