<svg width="21" height="20" viewBox="0 0 21 20" fill="none" xmlns="http://www.w3.org/2000/svg">
<path d="M19.216 2H16.1852V1C16.1852 0.734784 16.0787 0.48043 15.8892 0.292893C15.6998 0.105357 15.4428 0 15.1749 0H5.07196C4.80401 0 4.54704 0.105357 4.35758 0.292893C4.16811 0.48043 4.06167 0.734784 4.06167 1V2H1.0308C0.762852 2 0.505881 2.10536 0.316415 2.29289C0.126949 2.48043 0.0205078 2.73478 0.0205078 3V6C0.0205078 10.31 1.83802 12.91 4.8891 13.012C5.33576 13.7718 5.9456 14.4252 6.67551 14.926C7.40543 15.4267 8.23758 15.7627 9.11312 15.91V18H7.09254V20H13.1543V18H11.1337V15.91C12.009 15.7621 12.8409 15.4259 13.5708 14.9252C14.3006 14.4245 14.9106 13.7714 15.3577 13.012C18.4088 12.91 20.2263 10.31 20.2263 6V3C20.2263 2.73478 20.1199 2.48043 19.9304 2.29289C19.7409 2.10536 19.484 2 19.216 2V2ZM2.04109 6V4H4.06167V10.83C2.25931 10.078 2.04109 7.299 2.04109 6ZM10.1234 14C7.89471 14 6.08225 12.206 6.08225 10V2H14.1646V10C14.1646 12.206 12.3521 14 10.1234 14ZM16.1852 10.83V4H18.2057V6C18.2057 7.299 17.9875 10.078 16.1852 10.83Z" fill="#3B70FF"/>
</svg>
