<svg width="17" height="18" viewBox="0 0 17 18" fill="none" xmlns="http://www.w3.org/2000/svg">
<path d="M13.1748 18H3.07189C1.40087 18 0.0410156 16.654 0.0410156 15V3C0.0410156 1.346 1.40087 0 3.07189 0H13.1748C14.8458 0 16.2057 1.346 16.2057 3V15C16.2057 16.654 14.8458 18 13.1748 18ZM3.07189 2C2.51522 2 2.0616 2.449 2.0616 3V15C2.0616 15.551 2.51522 16 3.07189 16H13.1748C13.7315 16 14.1851 15.551 14.1851 15V3C14.1851 2.449 13.7315 2 13.1748 2H3.07189ZM12.1645 8H4.08218C3.9482 8 3.81972 7.94732 3.72498 7.85355C3.63025 7.75979 3.57703 7.63261 3.57703 7.5C3.57703 7.36739 3.63025 7.24021 3.72498 7.14645C3.81972 7.05268 3.9482 7 4.08218 7H12.1645C12.2985 7 12.427 7.05268 12.5217 7.14645C12.6164 7.24021 12.6696 7.36739 12.6696 7.5C12.6696 7.63261 12.6164 7.75979 12.5217 7.85355C12.427 7.94732 12.2985 8 12.1645 8ZM12.1645 5H4.08218C3.9482 5 3.81972 4.94732 3.72498 4.85355C3.63025 4.75979 3.57703 4.63261 3.57703 4.5C3.57703 4.36739 3.63025 4.24021 3.72498 4.14645C3.81972 4.05268 3.9482 4 4.08218 4H12.1645C12.2985 4 12.427 4.05268 12.5217 4.14645C12.6164 4.24021 12.6696 4.36739 12.6696 4.5C12.6696 4.63261 12.6164 4.75979 12.5217 4.85355C12.427 4.94732 12.2985 5 12.1645 5ZM12.1645 11H4.08218C3.9482 11 3.81972 10.9473 3.72498 10.8536C3.63025 10.7598 3.57703 10.6326 3.57703 10.5C3.57703 10.3674 3.63025 10.2402 3.72498 10.1464C3.81972 10.0527 3.9482 10 4.08218 10H12.1645C12.2985 10 12.427 10.0527 12.5217 10.1464C12.6164 10.2402 12.6696 10.3674 12.6696 10.5C12.6696 10.6326 12.6164 10.7598 12.5217 10.8536C12.427 10.9473 12.2985 11 12.1645 11ZM12.1645 14H4.08218C3.9482 14 3.81972 13.9473 3.72498 13.8536C3.63025 13.7598 3.57703 13.6326 3.57703 13.5C3.57703 13.3674 3.63025 13.2402 3.72498 13.1464C3.81972 13.0527 3.9482 13 4.08218 13H12.1645C12.2985 13 12.427 13.0527 12.5217 13.1464C12.6164 13.2402 12.6696 13.3674 12.6696 13.5C12.6696 13.6326 12.6164 13.7598 12.5217 13.8536C12.427 13.9473 12.2985 14 12.1645 14Z" fill="#F28C35"/>
</svg>
