<svg width="19" height="19" viewBox="0 0 19 19" fill="none" xmlns="http://www.w3.org/2000/svg">
<path d="M13.586 1C13.9611 0.62506 14.4697 0.414429 15 0.414429C15.5303 0.414429 16.0389 0.62506 16.414 1L18 2.586C18.3749 2.96106 18.5856 3.46967 18.5856 4C18.5856 4.53033 18.3749 5.03895 18 5.414L10 13.414C9.62501 13.7891 9.11639 13.9999 8.586 14H7C6.46957 14 5.96086 13.7893 5.58579 13.4142C5.21071 13.0391 5 12.5304 5 12V10.414C5.00011 9.88361 5.2109 9.37499 5.586 9L13.586 1ZM13.414 4L15 5.586L16.586 4L17.293 4.707L15 2.414L13.414 4V4ZM13.586 7L12 5.414L7 10.414V12H8.586L13.586 7ZM0 5C0 4.20435 0.316071 3.44129 0.87868 2.87868C1.44129 2.31607 2.20435 2 3 2H6C6.26522 2 6.51957 2.10536 6.70711 2.2929C6.89464 2.48043 7 2.73479 7 3C7 3.26522 6.89464 3.51957 6.70711 3.70711C6.51957 3.89464 6.26522 4 6 4H3C2.73478 4 2.48043 4.10536 2.29289 4.2929C2.10536 4.48043 2 4.73479 2 5V16C2 16.2652 2.10536 16.5196 2.29289 16.7071C2.48043 16.8946 2.73478 17 3 17H14C14.2652 17 14.5196 16.8946 14.7071 16.7071C14.8946 16.5196 15 16.2652 15 16V13C15 12.7348 15.1054 12.4804 15.2929 12.2929C15.4804 12.1054 15.7348 12 16 12C16.2652 12 16.5196 12.1054 16.7071 12.2929C16.8946 12.4804 17 12.7348 17 13V16C17 16.7957 16.6839 17.5587 16.1213 18.1213C15.5587 18.6839 14.7956 19 14 19H3C2.20435 19 1.44129 18.6839 0.87868 18.1213C0.316071 17.5587 0 16.7957 0 16V5Z" fill="#A7AEB5"/>
</svg>
