<svg width="21" height="20" viewBox="0 0 21 20" fill="none" xmlns="http://www.w3.org/2000/svg">
<path fill-rule="evenodd" clip-rule="evenodd" d="M4.51054 1.6853C6.17195 0.58649 8.12524 0 10.1234 0C11.4501 0 12.7639 0.258658 13.9896 0.761205C15.2154 1.26375 16.3291 2.00035 17.2672 2.92893C18.2054 3.85752 18.9495 4.95991 19.4573 6.17317C19.965 7.38642 20.2263 8.68678 20.2263 10C20.2263 11.9778 19.6338 13.9112 18.5237 15.5557C17.4135 17.2002 15.8357 18.4819 13.9896 19.2388C12.1436 19.9957 10.1122 20.1937 8.15243 19.8079C6.19266 19.422 4.3925 18.4696 2.97958 17.0711C1.56667 15.6725 0.604459 13.8907 0.214637 11.9509C-0.175186 10.0111 0.0248852 8.00043 0.78955 6.17317C1.55421 4.3459 2.84913 2.78412 4.51054 1.6853ZM5.63311 16.6518C6.96224 17.5308 8.52488 18 10.1234 18C12.267 18 14.3227 17.1571 15.8385 15.6569C17.3542 14.1566 18.2057 12.1217 18.2057 10C18.2057 8.41775 17.7317 6.87103 16.8436 5.55544C15.9555 4.23984 14.6932 3.21447 13.2164 2.60896C11.7395 2.00346 10.1144 1.84504 8.54663 2.15372C6.97881 2.4624 5.53868 3.22433 4.40835 4.34315C3.27801 5.46197 2.50825 6.88743 2.19639 8.43928C1.88453 9.99113 2.04459 11.5997 2.65632 13.0615C3.26805 14.5233 4.30398 15.7727 5.63311 16.6518ZM11.1337 9H14.1646C14.4325 9 14.6895 9.10536 14.8789 9.29289C15.0684 9.48043 15.1749 9.73478 15.1749 10C15.1749 10.2652 15.0684 10.5196 14.8789 10.7071C14.6895 10.8946 14.4325 11 14.1646 11H10.1234C9.85546 11 9.59849 10.8946 9.40902 10.7071C9.21956 10.5196 9.11312 10.2652 9.11312 10V6C9.11312 5.73478 9.21956 5.48043 9.40902 5.29289C9.59849 5.10536 9.85546 5 10.1234 5C10.3913 5 10.6483 5.10536 10.8378 5.29289C11.0273 5.48043 11.1337 5.73478 11.1337 6V9Z" fill="#3B70FF"/>
</svg>
