<svg width="17" height="21" viewBox="0 0 17 21" fill="none" xmlns="http://www.w3.org/2000/svg">
<path d="M8.6 5H7.3L3.3 2H12.6L8.6 5ZM14 13C14 14.1 13.7 15.2 13.1 16.2C12.5 17.2 11.6 17.9 10.6 18.4C9.6 18.9 8.4 19.1 7.3 18.9C6.2 18.8 5.1 18.3 4.2 17.6C3.3 16.9 2.7 15.9 2.3 14.8C1.9 13.7 1.9 12.6 2.2 11.5C2.5 10.4 3.1 9.4 3.9 8.6C4.7 7.8 5.7 7.3 6.9 7.1C7.7 6.9 8.5 6.9 9.3 7.1C10.7 7.4 11.9 8.1 12.8 9.2C13.5 10.3 14 11.6 14 13ZM16 0H0V2L4.9 5.6C3.2 6.3 1.8 7.6 1 9.2C0.1 10.8 -0.1 12.7 0.2 14.5C0.6 16.3 1.6 17.9 3 19.1C4.4 20.4 6.2 21 8 21C9.8 21 11.6 20.4 13.1 19.2C14.5 18 15.5 16.4 15.9 14.6C16.3 12.8 16 10.9 15.1 9.3C14.2 7.7 12.9 6.4 11.2 5.7L16 2V0ZM10.7 16.8L8 15.2L5.3 16.8L6 13.7L3.6 11.6L6.8 11.3L8 8.4L9.2 11.3L12.4 11.6L10 13.7L10.7 16.8Z" fill="#A7AEB5"/>
</svg>
