<svg width="24" height="24" viewBox="0 0 24 24" fill="none" xmlns="http://www.w3.org/2000/svg">
<path d="M16.586 2.99988C16.9611 2.62494 17.4697 2.41431 18 2.41431C18.5303 2.41431 19.0389 2.62494 19.414 2.99988L21 4.58588C21.3749 4.96093 21.5856 5.46955 21.5856 5.99988C21.5856 6.53021 21.3749 7.03882 21 7.41388L13 15.4139C12.625 15.789 12.1164 15.9998 11.586 15.9999H10C9.46957 15.9999 8.96086 15.7892 8.58579 15.4141C8.21071 15.039 8 14.5303 8 13.9999V12.4139C8.00011 11.8835 8.2109 11.3749 8.586 10.9999L16.586 2.99988ZM16.414 5.99988L18 7.58588L19.586 5.99988L20.293 6.70688L18 4.41388L16.414 5.99988V5.99988ZM16.586 8.99988L15 7.41388L10 12.4139V13.9999H11.586L16.586 8.99988ZM3 6.99988C3 6.20423 3.31607 5.44117 3.87868 4.87856C4.44129 4.31595 5.20435 3.99988 6 3.99988H9C9.26522 3.99988 9.51957 4.10524 9.70711 4.29277C9.89464 4.48031 10 4.73466 10 4.99988C10 5.2651 9.89464 5.51945 9.70711 5.70699C9.51957 5.89452 9.26522 5.99988 9 5.99988H6C5.73478 5.99988 5.48043 6.10524 5.29289 6.29277C5.10536 6.48031 5 6.73466 5 6.99988V17.9999C5 18.2651 5.10536 18.5195 5.29289 18.707C5.48043 18.8945 5.73478 18.9999 6 18.9999H17C17.2652 18.9999 17.5196 18.8945 17.7071 18.707C17.8946 18.5195 18 18.2651 18 17.9999V14.9999C18 14.7347 18.1054 14.4803 18.2929 14.2928C18.4804 14.1052 18.7348 13.9999 19 13.9999C19.2652 13.9999 19.5196 14.1052 19.7071 14.2928C19.8946 14.4803 20 14.7347 20 14.9999V17.9999C20 18.7955 19.6839 19.5586 19.1213 20.1212C18.5587 20.6838 17.7956 20.9999 17 20.9999H6C5.20435 20.9999 4.44129 20.6838 3.87868 20.1212C3.31607 19.5586 3 18.7955 3 17.9999V6.99988Z" fill="#A7AEB5"/>
</svg>
