<svg width="24" height="24" viewBox="0 0 24 24" fill="none" xmlns="http://www.w3.org/2000/svg">
<path fill-rule="evenodd" clip-rule="evenodd" d="M17.0998 20.89C17.2421 20.9629 17.3999 21.0006 17.5598 21C17.7807 21.0102 17.9987 20.9469 18.1798 20.82C18.4966 20.593 18.6527 20.2028 18.5798 19.82L17.5798 14.19L21.6998 10.19C21.9617 9.92856 22.0579 9.54387 21.9498 9.18996C21.8315 8.82738 21.5174 8.56363 21.1398 8.50996L15.4398 7.67996L12.8998 2.55996C12.7327 2.21497 12.3831 1.99585 11.9998 1.99585C11.6165 1.99585 11.2669 2.21497 11.0998 2.55996L8.58979 7.68996L2.88979 8.51996C2.51221 8.57363 2.19803 8.83738 2.07979 9.19996C1.97167 9.55387 2.06784 9.93856 2.32979 10.2L6.44979 14.2L5.44979 19.83C5.38302 20.2058 5.53605 20.5869 5.84422 20.8122C6.15238 21.0374 6.56192 21.0676 6.89979 20.89L11.9998 18.22L17.0998 20.89ZM12.4598 16.21C12.3187 16.1338 12.1601 16.0959 11.9998 16.1C11.8326 16.0667 11.6595 16.0806 11.4998 16.14L7.72979 18.14L8.44979 13.98C8.50651 13.6536 8.39791 13.3203 8.15979 13.09L5.15979 10.16L9.35979 9.53996C9.68296 9.49321 9.96295 9.29161 10.1098 8.99996L11.9998 5.24996L13.8898 8.99996C14.0237 9.28908 14.2874 9.49707 14.5998 9.55996L18.7998 10.18L15.7998 13.11C15.5617 13.3403 15.4531 13.6736 15.5098 14L16.2298 18.21L12.4598 16.21Z" fill="#A7AEB5"/>
</svg>
