<svg width="24" height="24" viewBox="0 0 24 24" fill="none" xmlns="http://www.w3.org/2000/svg">
<path d="M9 5C7.93913 5 6.92172 5.42143 6.17157 6.17157C5.42143 6.92172 5 7.93913 5 9C5 10.0609 5.42143 11.0783 6.17157 11.8284C6.92172 12.5786 7.93913 13 9 13C10.0609 13 11.0783 12.5786 11.8284 11.8284C12.5786 11.0783 13 10.0609 13 9C13 7.93913 12.5786 6.92172 11.8284 6.17157C11.0783 5.42143 10.0609 5 9 5ZM3 9C3 7.4087 3.63214 5.88258 4.75736 4.75736C5.88258 3.63214 7.4087 3 9 3C10.5913 3 12.1174 3.63214 13.2426 4.75736C14.3679 5.88258 15 7.4087 15 9C15 10.5913 14.3679 12.1174 13.2426 13.2426C12.1174 14.3679 10.5913 15 9 15C7.4087 15 5.88258 14.3679 4.75736 13.2426C3.63214 12.1174 3 10.5913 3 9V9Z" fill="#A7AEB5"/>
<path d="M3.124 19.0001H14.876C14.329 16.8031 12.016 15.0001 9 15.0001C5.984 15.0001 3.671 16.8031 3.124 19.0001V19.0001ZM1 20.0001C1 15.9951 4.732 13.0001 9 13.0001C13.268 13.0001 17 15.9951 17 20.0001C17 20.2653 16.8946 20.5197 16.7071 20.7072C16.5196 20.8948 16.2652 21.0001 16 21.0001H2C1.73478 21.0001 1.48043 20.8948 1.29289 20.7072C1.10536 20.5197 1 20.2653 1 20.0001ZM16.001 12.8741C15.8822 13.0887 15.7534 13.2976 15.615 13.5001C16.238 14.0501 16.792 14.6761 17.262 15.3641C19.133 15.9991 20.476 17.3941 20.876 19.0001H18.8C18.931 19.6461 19 20.3151 19 21.0001H22C22.2652 21.0001 22.5196 20.8948 22.7071 20.7072C22.8946 20.5197 23 20.2653 23 20.0001C23 17.2081 21.186 14.9071 18.642 13.7691C19.6851 12.9729 20.4384 11.8567 20.7865 10.5915C21.1346 9.32635 21.0584 7.98191 20.5695 6.76418C20.0805 5.54645 19.2059 4.52258 18.0795 3.84941C16.9531 3.17625 15.6371 2.89092 14.333 3.03712C15.0015 3.6358 15.565 4.34224 16 5.12712C16.8578 5.3499 17.6174 5.85111 18.1596 6.55215C18.7018 7.25318 18.996 8.11436 18.996 9.00062C18.996 9.88688 18.7018 10.7481 18.1596 11.4491C17.6174 12.1501 16.8578 12.6513 16 12.8741H16.001Z" fill="#A7AEB5"/>
</svg>
