<svg width="20" height="19" viewBox="0 0 20 19" fill="none" xmlns="http://www.w3.org/2000/svg">
<path d="M9.33617 0.253C9.51918 0.0904881 9.75542 0.000732422 10.0002 0.000732422C10.2449 0.000732422 10.4812 0.0904881 10.6642 0.253L19.6642 8.253C19.8523 8.43172 19.9636 8.67656 19.9745 8.93582C19.9855 9.19508 19.8952 9.44844 19.7228 9.64238C19.5505 9.83632 19.3094 9.95566 19.0507 9.97518C18.7919 9.9947 18.5357 9.91288 18.3362 9.747L18.0002 9.45V17C18.0002 17.5304 17.7895 18.0391 17.4144 18.4142C17.0393 18.7893 16.5306 19 16.0002 19H4.00017C3.46974 19 2.96103 18.7893 2.58596 18.4142C2.21088 18.0391 2.00017 17.5304 2.00017 17V9.45L1.66417 9.747C1.46463 9.91288 1.20842 9.9947 0.94967 9.97518C0.690919 9.95566 0.449888 9.83632 0.277494 9.64238C0.1051 9.44844 0.0148448 9.19508 0.0257938 8.93582C0.0367428 8.67656 0.148039 8.43172 0.336171 8.253L9.33617 0.253ZM4.00017 7.67V17H7.00017V12C7.00017 11.7348 7.10553 11.4804 7.29306 11.2929C7.4806 11.1054 7.73495 11 8.00017 11H12.0002C12.2654 11 12.5197 11.1054 12.7073 11.2929C12.8948 11.4804 13.0002 11.7348 13.0002 12V17H16.0002V7.671L10.0002 2.338L4.00017 7.671V7.67ZM11.0002 17V13H9.00017V17H11.0002Z" fill="#A7AEB5"/>
</svg>
