<svg width="20" height="20" viewBox="0 0 20 20" fill="none" xmlns="http://www.w3.org/2000/svg">
<path d="M16 2.00005H11.82C11.25 0.440055 9.53 -0.359945 8 0.200055C7.14 0.500055 6.5 1.16005 6.18 2.00005H2C1.46957 2.00005 0.960859 2.21077 0.585786 2.58584C0.210714 2.96091 0 3.46962 0 4.00005V18.0001C0 18.5305 0.210714 19.0392 0.585786 19.4143C0.960859 19.7893 1.46957 20.0001 2 20.0001H16C16.5304 20.0001 17.0391 19.7893 17.4142 19.4143C17.7893 19.0392 18 18.5305 18 18.0001V4.00005C18 3.46962 17.7893 2.96091 17.4142 2.58584C17.0391 2.21077 16.5304 2.00005 16 2.00005ZM9 2.00005C9.26522 2.00005 9.51957 2.10541 9.70711 2.29295C9.89464 2.48048 10 2.73484 10 3.00005C10 3.26527 9.89464 3.51962 9.70711 3.70716C9.51957 3.8947 9.26522 4.00005 9 4.00005C8.73478 4.00005 8.48043 3.8947 8.29289 3.70716C8.10536 3.51962 8 3.26527 8 3.00005C8 2.73484 8.10536 2.48048 8.29289 2.29295C8.48043 2.10541 8.73478 2.00005 9 2.00005ZM4 6.00005H14V4.00005H16V18.0001H2V4.00005H4V6.00005ZM14 10.0001H4V8.00005H14V10.0001ZM12 14.0001H4V12.0001H12V14.0001Z" fill="#A7AEB5"/>
</svg>
