<svg width="18" height="20" viewBox="0 0 18 20" fill="none" xmlns="http://www.w3.org/2000/svg">
<path d="M4 16H14V14H4V16Z" fill="#A7AEB5"/>
<path d="M14 12H4V10H14V12Z" fill="#A7AEB5"/>
<path d="M4 8H8V6H4V8Z" fill="#A7AEB5"/>
<path fill-rule="evenodd" clip-rule="evenodd" d="M3 0C2.20435 0 1.44129 0.316071 0.87868 0.87868C0.316071 1.44129 0 2.20435 0 3V17C0 17.7956 0.316071 18.5587 0.87868 19.1213C1.44129 19.6839 2.20435 20 3 20H15C15.7956 20 16.5587 19.6839 17.1213 19.1213C17.6839 18.5587 18 17.7956 18 17V7C18 5.14348 17.2625 3.36301 15.9497 2.05025C14.637 0.737498 12.8565 0 11 0H3ZM3 2H10V7H16V17C16 17.2652 15.8946 17.5196 15.7071 17.7071C15.5196 17.8946 15.2652 18 15 18H3C2.73478 18 2.48043 17.8946 2.29289 17.7071C2.10536 17.5196 2 17.2652 2 17V3C2 2.73478 2.10536 2.48043 2.29289 2.29289C2.48043 2.10536 2.73478 2 3 2V2ZM12 2.1C12.786 2.26102 13.5218 2.60849 14.1455 3.11315C14.7692 3.61782 15.2625 4.26492 15.584 5H12V2.1Z" fill="#A7AEB5"/>
</svg>
