<svg width="22" height="18" viewBox="0 0 22 18" fill="none" xmlns="http://www.w3.org/2000/svg">
<path d="M8 2C6.93913 2 5.92172 2.42143 5.17157 3.17157C4.42143 3.92172 4 4.93913 4 6C4 7.06087 4.42143 8.07828 5.17157 8.82843C5.92172 9.57857 6.93913 10 8 10C9.06087 10 10.0783 9.57857 10.8284 8.82843C11.5786 8.07828 12 7.06087 12 6C12 4.93913 11.5786 3.92172 10.8284 3.17157C10.0783 2.42143 9.06087 2 8 2ZM2 6C2 4.4087 2.63214 2.88258 3.75736 1.75736C4.88258 0.632141 6.4087 0 8 0C9.5913 0 11.1174 0.632141 12.2426 1.75736C13.3679 2.88258 14 4.4087 14 6C14 7.5913 13.3679 9.11742 12.2426 10.2426C11.1174 11.3679 9.5913 12 8 12C6.4087 12 4.88258 11.3679 3.75736 10.2426C2.63214 9.11742 2 7.5913 2 6Z" fill="#A7AEB5"/>
<path d="M2.124 16H13.876C13.329 13.803 11.016 12 8 12C4.984 12 2.671 13.803 2.124 16ZM0 17C0 12.995 3.732 10 8 10C12.268 10 16 12.995 16 17C16 17.2652 15.8946 17.5196 15.7071 17.7071C15.5196 17.8946 15.2652 18 15 18H1C0.734784 18 0.48043 17.8946 0.292893 17.7071C0.105357 17.5196 0 17.2652 0 17ZM15.001 9.874C14.8822 10.0886 14.7534 10.2975 14.615 10.5C15.238 11.05 15.792 11.676 16.262 12.364C18.133 12.999 19.476 14.394 19.876 16H17.8C17.931 16.646 18 17.315 18 18H21C21.2652 18 21.5196 17.8946 21.7071 17.7071C21.8946 17.5196 22 17.2652 22 17C22 14.208 20.186 11.907 17.642 10.769C18.6851 9.97281 19.4384 8.85662 19.7865 7.59142C20.1346 6.32623 20.0584 4.98178 19.5695 3.76405C19.0805 2.54632 18.2059 1.52245 17.0795 0.849292C15.9531 0.17613 14.637 -0.109205 13.333 0.036999C14.0015 0.635676 14.565 1.34212 15 2.127C15.8578 2.34978 16.6174 2.85099 17.1596 3.55202C17.7018 4.25306 17.996 5.11424 17.996 6.0005C17.996 6.88676 17.7018 7.74794 17.1596 8.44897C16.6174 9.15001 15.8578 9.65122 15 9.874H15.001Z" fill="#A7AEB5"/>
</svg>
