<svg width="20" height="20" viewBox="0 0 20 20" fill="none" xmlns="http://www.w3.org/2000/svg">
<path d="M8.11305 3.99998H3.0616C2.5257 3.99998 2.01176 4.21069 1.63283 4.58577C1.2539 4.96084 1.04102 5.46955 1.04102 5.99998V17C1.04102 17.5304 1.2539 18.0391 1.63283 18.4142C2.01176 18.7893 2.5257 19 3.0616 19H14.1748C14.7107 19 15.2246 18.7893 15.6036 18.4142C15.9825 18.0391 16.1954 17.5304 16.1954 17V12L8.11305 3.99998ZM14.7668 2.58598C14.9532 2.39496 15.1762 2.24259 15.4227 2.13778C15.6692 2.03296 15.9343 1.97779 16.2026 1.97548C16.4709 1.97317 16.737 2.02377 16.9853 2.12434C17.2336 2.2249 17.4592 2.3734 17.649 2.56119C17.8387 2.74897 17.9887 2.97228 18.0903 3.21807C18.1919 3.46386 18.243 3.72722 18.2407 3.99278C18.2384 4.25834 18.1826 4.52078 18.0767 4.76479C17.9708 5.0088 17.8169 5.22949 17.6239 5.41398L8.94957 14H6.09247V11.172L14.7668 2.58598Z" stroke="#F28C35" stroke-width="2" stroke-linecap="round" stroke-linejoin="round"/>
</svg>
