<svg width="24" height="24" viewBox="0 0 24 24" fill="none" xmlns="http://www.w3.org/2000/svg">
<path d="M20.9524 10.827C21.6766 10.827 21.9789 9.89648 21.3906 9.46758L12.4399 2.95664C12.312 2.86299 12.1577 2.8125 11.9992 2.8125C11.8408 2.8125 11.6864 2.86299 11.5586 2.95664L2.60782 9.46758C2.01954 9.89414 2.32189 10.827 3.04845 10.827H4.49923V19.5926H2.81173C2.7086 19.5926 2.62423 19.677 2.62423 19.7801V20.9988C2.62423 21.102 2.7086 21.1863 2.81173 21.1863H21.1867C21.2899 21.1863 21.3742 21.102 21.3742 20.9988V19.7801C21.3742 19.677 21.2899 19.5926 21.1867 19.5926H19.4992V10.827H20.9524ZM8.92892 19.5926H6.18673V10.827H8.92892V19.5926ZM13.3586 19.5926H10.6164V10.827H13.3586V19.5926ZM17.8117 19.5926H15.0461V10.827H17.8117V19.5926Z" fill="#7D7D7D"/>
</svg>
