<svg width="24" height="24" viewBox="0 0 24 24" fill="none" xmlns="http://www.w3.org/2000/svg">
<path d="M16.8125 2.83333H15.6666V1.91666C15.6666 1.41067 15.2569 1 14.75 1C14.2431 1 13.8333 1.41067 13.8333 1.91666V2.83333H6.49999V1.91666C6.49999 1.41067 6.09024 1 5.58332 1C5.07641 1 4.66666 1.41067 4.66666 1.91666V2.83333H3.52083C2.13025 2.83333 1 3.96358 1 5.35416V15.6666C1 17.1828 2.23383 18.4166 3.74999 18.4166H8.33332C8.84023 18.4166 9.24998 18.006 9.24998 17.5C9.24998 16.994 8.84023 16.5833 8.33332 16.5833H3.74999C3.244 16.5833 2.83333 16.1717 2.83333 15.6666V8.33332H17.5C17.5 8.83932 17.9097 9.24998 18.4166 9.24998C18.9235 9.24998 19.3333 8.83932 19.3333 8.33332V5.35416C19.3333 3.96358 18.2031 2.83333 16.8125 2.83333Z" fill="#7D7D7D"/>
<path d="M17.0416 11.0833C13.7563 11.0833 11.0833 13.7562 11.0833 17.0416C11.0833 20.3269 13.7563 22.9999 17.0416 22.9999C20.3269 22.9999 22.9999 20.3269 22.9999 17.0416C22.9999 13.7562 20.3269 11.0833 17.0416 11.0833ZM19.7971 16.0378L16.818 19.4753C16.6511 19.6678 16.4119 19.7815 16.158 19.7916C16.147 19.7916 16.136 19.7916 16.125 19.7916C15.882 19.7916 15.6492 19.6953 15.4769 19.523L13.8727 17.9188C13.5143 17.5604 13.5143 16.9811 13.8727 16.6227C14.2311 16.2642 14.8105 16.2642 15.1689 16.6227L16.0773 17.5311L18.4111 14.8379C18.7429 14.4547 19.3223 14.4153 19.7045 14.7453C20.0868 15.0762 20.128 15.6556 19.7971 16.0378Z" fill="#7D7D7D"/>
</svg>
