<svg width="16" height="16" viewBox="0 0 16 16" fill="none" xmlns="http://www.w3.org/2000/svg">
<path d="M7.99998 10.6668C7.84421 10.6671 7.69325 10.6128 7.57331 10.5135L3.57331 7.18012C3.2898 6.94448 3.251 6.52362 3.48664 6.24012C3.72228 5.95661 4.14314 5.91781 4.42664 6.15345L7.99998 9.14012L11.5733 6.26012C11.711 6.14827 11.8877 6.09594 12.0641 6.11471C12.2405 6.13348 12.4022 6.2218 12.5133 6.36012C12.6367 6.49869 12.6968 6.68244 12.6791 6.86716C12.6614 7.05188 12.5675 7.22086 12.42 7.33345L8.41998 10.5535C8.29659 10.6371 8.14871 10.677 7.99998 10.6668Z" fill="#7D7D7D"/>
</svg>
