<svg width="16" height="16" viewBox="0 0 16 16" fill="none" xmlns="http://www.w3.org/2000/svg">
<path d="M6.66667 12.6665C6.5109 12.6669 6.35994 12.6126 6.24 12.5132C6.10366 12.4002 6.0179 12.2375 6.00164 12.0612C5.98538 11.8848 6.03996 11.7093 6.15333 11.5732L9.14 7.99988L6.26 4.41988C6.14815 4.28215 6.09582 4.10552 6.11459 3.92909C6.13336 3.75267 6.22168 3.591 6.36 3.47988C6.49944 3.35719 6.68375 3.29823 6.86852 3.31721C7.05328 3.3362 7.22175 3.4314 7.33333 3.57988L10.5533 7.57988C10.7555 7.82588 10.7555 8.18055 10.5533 8.42655L7.22 12.4265C7.08436 12.5902 6.87882 12.6793 6.66667 12.6665Z" fill="#7D7D7D"/>
</svg>
