<svg width="24" height="24" viewBox="0 0 24 24" fill="none" xmlns="http://www.w3.org/2000/svg">
<path d="M3.24005 7.28991L11.7601 11.9199C11.9101 11.9999 12.0901 11.9999 12.2401 11.9199L20.7601 7.28991C20.919 7.21142 21.0153 7.04521 21.0044 6.86828C20.9935 6.69135 20.8774 6.53826 20.7101 6.47991L12.1901 2.99991C12.0683 2.9499 11.9318 2.9499 11.8101 2.99991L3.29005 6.47991C3.12266 6.53826 3.00663 6.69135 2.99571 6.86828C2.98479 7.04521 3.08111 7.21142 3.24005 7.28991Z" fill="#7D7D7D"/>
<path d="M20.71 10.6599L18.88 9.87988L12.24 13.4899C12.09 13.5699 11.91 13.5699 11.76 13.4899L5.11998 9.87988L3.28998 10.6599C3.13202 10.7428 3.03308 10.9065 3.03308 11.0849C3.03308 11.2633 3.13202 11.427 3.28998 11.5099L11.81 16.4099C11.9573 16.5 12.1427 16.5 12.29 16.4099L20.81 11.5099C20.9604 11.4098 21.0419 11.2337 21.0208 11.0542C20.9996 10.8747 20.8795 10.7224 20.71 10.6599Z" fill="#7D7D7D"/>
<path d="M20.71 15.0999L19.15 14.4199L12.24 18.1799C12.09 18.2599 11.91 18.2599 11.76 18.1799L4.84996 14.4199L3.28996 15.0999C3.12749 15.1842 3.02551 15.3519 3.02551 15.5349C3.02551 15.7179 3.12749 15.8857 3.28996 15.9699L11.81 20.9699C11.96 21.0499 12.14 21.0499 12.29 20.9699L20.81 15.9699C20.9649 15.8684 21.0494 15.6881 21.0282 15.5041C21.0071 15.32 20.8839 15.1636 20.71 15.0999Z" fill="#7D7D7D"/>
</svg>
