<svg width="121" height="134" viewBox="0 0 121 134" fill="none" xmlns="http://www.w3.org/2000/svg">
<rect width="121" height="134" rx="13.4876" fill="#EE2D2C"/>
<path d="M20.385 75L24.011 64.878H26.167L29.786 75H27.749L26.923 72.655H23.283L22.436 75H20.385ZM23.738 70.87H26.433L25.096 66.852L23.738 70.87ZM33.5498 75.14C33.1065 75.14 32.6725 75.049 32.2478 74.867C31.8278 74.685 31.4801 74.419 31.2048 74.069C30.9295 73.7143 30.7918 73.2803 30.7918 72.767V67.762H32.8358V72.508C32.8358 72.844 32.9455 73.1193 33.1648 73.334C33.3841 73.5487 33.7061 73.656 34.1308 73.656C34.5275 73.656 34.8448 73.5533 35.0828 73.348C35.3208 73.138 35.4398 72.8463 35.4398 72.473V67.762H37.4628V75H35.9228L35.6848 73.565C35.6008 73.9897 35.4421 74.3163 35.2088 74.545C34.9801 74.769 34.7165 74.923 34.4178 75.007C34.1238 75.0957 33.8345 75.14 33.5498 75.14ZM41.478 75.126C40.9413 75.126 40.5166 75.063 40.204 74.937C39.896 74.811 39.6673 74.6453 39.518 74.44C39.3686 74.23 39.273 73.999 39.231 73.747C39.189 73.4903 39.168 73.2313 39.168 72.97V64.598H41.17V72.718C41.17 72.984 41.2283 73.201 41.345 73.369C41.4616 73.537 41.6763 73.6373 41.989 73.67L42.332 73.691V74.951C42.192 75.0023 42.0473 75.0443 41.898 75.077C41.7533 75.1097 41.6133 75.126 41.478 75.126ZM45.7523 75.14C45.057 75.14 44.476 74.9487 44.0093 74.566C43.5427 74.1833 43.3093 73.6373 43.3093 72.928C43.3093 72.1347 43.6033 71.5327 44.1913 71.122C44.784 70.7067 45.722 70.492 47.0053 70.478L47.9083 70.464V70.03C47.9083 69.6987 47.8103 69.4443 47.6143 69.267C47.423 69.085 47.1243 68.9963 46.7183 69.001C46.4197 69.0057 46.135 69.0757 45.8643 69.211C45.5983 69.3463 45.4163 69.582 45.3183 69.918H43.6173C43.6547 69.134 43.9697 68.5553 44.5623 68.182C45.155 67.8087 45.904 67.622 46.8093 67.622C47.92 67.622 48.7063 67.8273 49.1683 68.238C49.635 68.644 49.8683 69.2017 49.8683 69.911V75H48.1603L47.9923 73.754C47.745 74.2767 47.4347 74.6383 47.0613 74.839C46.6927 75.0397 46.2563 75.14 45.7523 75.14ZM46.4383 73.796C46.6857 73.796 46.9213 73.74 47.1453 73.628C47.3693 73.5113 47.5513 73.362 47.6913 73.18C47.836 72.9933 47.9083 72.795 47.9083 72.585V71.514L47.1733 71.528C46.8327 71.5327 46.5153 71.5723 46.2213 71.647C45.9273 71.7217 45.6893 71.8477 45.5073 72.025C45.33 72.1977 45.2413 72.431 45.2413 72.725C45.2413 73.061 45.3557 73.3247 45.5843 73.516C45.8177 73.7027 46.1023 73.796 46.4383 73.796ZM63.0918 64.878L59.5988 75H57.2818L53.8168 64.878H55.7698L58.4438 72.627L61.1388 64.878H63.0918ZM66.3075 64.885V66.726H64.3195V64.885H66.3075ZM66.2865 67.762V75H64.3335V67.762H66.2865ZM68.1797 75V67.762H70.1467V69.477C70.3194 68.9217 70.6017 68.4737 70.9937 68.133C71.3857 67.7923 71.8687 67.622 72.4427 67.622C72.5967 67.622 72.7017 67.636 72.7577 67.664V69.61C72.7157 69.596 72.6644 69.5867 72.6037 69.582C72.5477 69.5727 72.4964 69.5657 72.4497 69.561C71.6424 69.491 71.0684 69.5983 70.7277 69.883C70.3917 70.1677 70.2237 70.5527 70.2237 71.038V75H68.1797ZM78.4276 69.183H76.8176L76.8316 73.04C76.8316 73.306 76.8829 73.474 76.9856 73.544C77.0882 73.6093 77.2516 73.642 77.4756 73.642H78.4486V74.902C78.3506 74.944 78.2036 74.9837 78.0076 75.021C77.8116 75.0583 77.5362 75.077 77.1816 75.077C76.5469 75.077 76.0546 74.9953 75.7046 74.832C75.3592 74.6687 75.1189 74.44 74.9836 74.146C74.8482 73.852 74.7806 73.5113 74.7806 73.124V69.183H73.6046V67.762H74.8506L75.3616 65.578H76.8176V67.755H78.4276V69.183ZM82.5361 75.14C82.0928 75.14 81.6588 75.049 81.2341 74.867C80.8141 74.685 80.4665 74.419 80.1911 74.069C79.9158 73.7143 79.7781 73.2803 79.7781 72.767V67.762H81.8221V72.508C81.8221 72.844 81.9318 73.1193 82.1511 73.334C82.3705 73.5487 82.6925 73.656 83.1171 73.656C83.5138 73.656 83.8311 73.5533 84.0691 73.348C84.3071 73.138 84.4261 72.8463 84.4261 72.473V67.762H86.4491V75H84.9091L84.6711 73.565C84.5871 73.9897 84.4285 74.3163 84.1951 74.545C83.9665 74.769 83.7028 74.923 83.4041 75.007C83.1101 75.0957 82.8208 75.14 82.5361 75.14ZM90.2133 75.14C89.5179 75.14 88.9369 74.9487 88.4703 74.566C88.0036 74.1833 87.7703 73.6373 87.7703 72.928C87.7703 72.1347 88.0643 71.5327 88.6523 71.122C89.2449 70.7067 90.1829 70.492 91.4663 70.478L92.3693 70.464V70.03C92.3693 69.6987 92.2713 69.4443 92.0753 69.267C91.8839 69.085 91.5853 68.9963 91.1793 69.001C90.8806 69.0057 90.5959 69.0757 90.3253 69.211C90.0593 69.3463 89.8773 69.582 89.7793 69.918H88.0783C88.1156 69.134 88.4306 68.5553 89.0233 68.182C89.6159 67.8087 90.3649 67.622 91.2703 67.622C92.3809 67.622 93.1673 67.8273 93.6293 68.238C94.0959 68.644 94.3293 69.2017 94.3293 69.911V75H92.6213L92.4533 73.754C92.2059 74.2767 91.8956 74.6383 91.5223 74.839C91.1536 75.0397 90.7173 75.14 90.2133 75.14ZM90.8993 73.796C91.1466 73.796 91.3823 73.74 91.6063 73.628C91.8303 73.5113 92.0123 73.362 92.1523 73.18C92.2969 72.9933 92.3693 72.795 92.3693 72.585V71.514L91.6343 71.528C91.2936 71.5327 90.9763 71.5723 90.6823 71.647C90.3883 71.7217 90.1503 71.8477 89.9683 72.025C89.7909 72.1977 89.7023 72.431 89.7023 72.725C89.7023 73.061 89.8166 73.3247 90.0453 73.516C90.2786 73.7027 90.5633 73.796 90.8993 73.796ZM98.4487 75.126C97.912 75.126 97.4873 75.063 97.1747 74.937C96.8667 74.811 96.638 74.6453 96.4887 74.44C96.3393 74.23 96.2437 73.999 96.2017 73.747C96.1597 73.4903 96.1387 73.2313 96.1387 72.97V64.598H98.1407V72.718C98.1407 72.984 98.199 73.201 98.3157 73.369C98.4323 73.537 98.647 73.6373 98.9597 73.67L99.3027 73.691V74.951C99.1627 75.0023 99.018 75.0443 98.8687 75.077C98.724 75.1097 98.584 75.126 98.4487 75.126ZM21.134 82.878H23.171V93H21.134V82.878ZM25.1816 93V85.762H27.1906V86.784C27.3586 86.5227 27.6083 86.2777 27.9396 86.049C28.271 85.8157 28.7213 85.699 29.2906 85.699C29.734 85.699 30.147 85.7853 30.5296 85.958C30.917 86.1307 31.2296 86.4037 31.4676 86.777C31.7056 87.1457 31.8246 87.6287 31.8246 88.226V93H29.7806V88.478C29.7806 88.086 29.6616 87.792 29.4236 87.596C29.1903 87.4 28.908 87.302 28.5766 87.302C28.2406 87.302 27.9303 87.3907 27.6456 87.568C27.3656 87.7453 27.2256 88.0113 27.2256 88.366V93H25.1816ZM36.2478 93.14C35.7391 93.14 35.2538 93.0583 34.7918 92.895C34.3298 92.727 33.9354 92.4657 33.6088 92.111C33.2821 91.7563 33.0768 91.292 32.9928 90.718H34.7638C34.8524 91.1053 35.0484 91.3737 35.3518 91.523C35.6598 91.6677 35.9538 91.74 36.2338 91.74C36.6258 91.74 36.9408 91.6793 37.1788 91.558C37.4214 91.432 37.5428 91.2407 37.5428 90.984C37.5428 90.788 37.4704 90.6317 37.3258 90.515C37.1858 90.3983 36.9524 90.3097 36.6258 90.249L35.3518 89.983C34.7124 89.8477 34.1968 89.619 33.8048 89.297C33.4174 88.9703 33.2214 88.5083 33.2168 87.911C33.2121 87.2577 33.4688 86.714 33.9868 86.28C34.5094 85.8413 35.2654 85.622 36.2548 85.622C37.1461 85.622 37.8578 85.8203 38.3898 86.217C38.9264 86.609 39.1994 87.1597 39.2088 87.869H37.5008C37.4494 87.589 37.3094 87.3743 37.0808 87.225C36.8568 87.071 36.5744 86.994 36.2338 86.994C35.8791 86.994 35.5874 87.057 35.3588 87.183C35.1301 87.309 35.0158 87.5003 35.0158 87.757C35.0158 87.9483 35.1091 88.1 35.2958 88.212C35.4824 88.3193 35.7718 88.4127 36.1638 88.492L37.3398 88.758C37.8764 88.8887 38.2848 89.08 38.5648 89.332C38.8494 89.584 39.0408 89.85 39.1388 90.13C39.2414 90.4053 39.2928 90.6527 39.2928 90.872C39.2928 91.5953 39.0104 92.1553 38.4458 92.552C37.8811 92.944 37.1484 93.14 36.2478 93.14ZM45.0545 87.183H43.4445L43.4585 91.04C43.4585 91.306 43.5099 91.474 43.6125 91.544C43.7152 91.6093 43.8785 91.642 44.1025 91.642H45.0755V92.902C44.9775 92.944 44.8305 92.9837 44.6345 93.021C44.4385 93.0583 44.1632 93.077 43.8085 93.077C43.1739 93.077 42.6815 92.9953 42.3315 92.832C41.9862 92.6687 41.7459 92.44 41.6105 92.146C41.4752 91.852 41.4075 91.5113 41.4075 91.124V87.183H40.2315V85.762H41.4775L41.9885 83.578H43.4445V85.755H45.0545V87.183ZM48.6435 82.885V84.726H46.6555V82.885H48.6435ZM48.6225 85.762V93H46.6695V85.762H48.6225ZM54.8846 87.183H53.2746L53.2886 91.04C53.2886 91.306 53.3399 91.474 53.4426 91.544C53.5453 91.6093 53.7086 91.642 53.9326 91.642H54.9056V92.902C54.8076 92.944 54.6606 92.9837 54.4646 93.021C54.2686 93.0583 53.9933 93.077 53.6386 93.077C53.0039 93.077 52.5116 92.9953 52.1616 92.832C51.8163 92.6687 51.5759 92.44 51.4406 92.146C51.3053 91.852 51.2376 91.5113 51.2376 91.124V87.183H50.0616V85.762H51.3076L51.8186 83.578H53.2746V85.755H54.8846V87.183ZM58.9932 93.14C58.5498 93.14 58.1158 93.049 57.6912 92.867C57.2712 92.685 56.9235 92.419 56.6482 92.069C56.3728 91.7143 56.2352 91.2803 56.2352 90.767V85.762H58.2792V90.508C58.2792 90.844 58.3888 91.1193 58.6082 91.334C58.8275 91.5487 59.1495 91.656 59.5742 91.656C59.9708 91.656 60.2882 91.5533 60.5262 91.348C60.7642 91.138 60.8832 90.8463 60.8832 90.473V85.762H62.9062V93H61.3662L61.1282 91.565C61.0442 91.9897 60.8855 92.3163 60.6522 92.545C60.4235 92.769 60.1598 92.923 59.8612 93.007C59.5672 93.0957 59.2778 93.14 58.9932 93.14ZM68.9803 87.183H67.3703L67.3843 91.04C67.3843 91.306 67.4356 91.474 67.5383 91.544C67.641 91.6093 67.8043 91.642 68.0283 91.642H69.0013V92.902C68.9033 92.944 68.7563 92.9837 68.5603 93.021C68.3643 93.0583 68.089 93.077 67.7343 93.077C67.0996 93.077 66.6073 92.9953 66.2573 92.832C65.912 92.6687 65.6716 92.44 65.5363 92.146C65.401 91.852 65.3333 91.5113 65.3333 91.124V87.183H64.1573V85.762H65.4033L65.9143 83.578H67.3703V85.755H68.9803V87.183ZM73.3658 93.14C72.6565 93.14 72.0381 92.9883 71.5108 92.685C70.9881 92.3817 70.5821 91.9523 70.2928 91.397C70.0081 90.8417 69.8658 90.1837 69.8658 89.423C69.8658 88.6623 70.0081 87.9973 70.2928 87.428C70.5821 86.8587 70.9881 86.4153 71.5108 86.098C72.0381 85.7807 72.6588 85.622 73.3728 85.622C74.0868 85.622 74.7051 85.7783 75.2278 86.091C75.7505 86.4037 76.1541 86.8447 76.4388 87.414C76.7235 87.9787 76.8658 88.6483 76.8658 89.423C76.8658 90.151 76.7258 90.795 76.4458 91.355C76.1705 91.9103 75.7715 92.3467 75.2488 92.664C74.7308 92.9813 74.1031 93.14 73.3658 93.14ZM73.3728 91.621C73.7321 91.621 74.0215 91.516 74.2408 91.306C74.4601 91.096 74.6188 90.8207 74.7168 90.48C74.8195 90.1347 74.8708 89.759 74.8708 89.353C74.8708 88.9703 74.8241 88.611 74.7308 88.275C74.6375 87.9343 74.4811 87.659 74.2618 87.449C74.0471 87.2343 73.7508 87.127 73.3728 87.127C73.0135 87.127 72.7218 87.2273 72.4978 87.428C72.2785 87.6287 72.1175 87.897 72.0148 88.233C71.9121 88.569 71.8608 88.9423 71.8608 89.353C71.8608 89.731 71.9075 90.095 72.0008 90.445C72.0941 90.7903 72.2505 91.0727 72.4698 91.292C72.6891 91.5113 72.9901 91.621 73.3728 91.621ZM24.935 111.14C24.4357 111.14 23.9457 111.077 23.465 110.951C22.9843 110.825 22.5433 110.636 22.142 110.384C21.7453 110.132 21.4187 109.817 21.162 109.439C20.9053 109.061 20.7513 108.618 20.7 108.109H22.793C22.8957 108.566 23.1383 108.919 23.521 109.166C23.9083 109.413 24.3773 109.537 24.928 109.537C25.4833 109.537 25.9617 109.432 26.363 109.222C26.769 109.012 26.972 108.692 26.972 108.263C26.972 107.88 26.8087 107.596 26.482 107.409C26.1553 107.222 25.747 107.08 25.257 106.982L23.507 106.625C22.7417 106.48 22.135 106.177 21.687 105.715C21.239 105.253 21.008 104.632 20.994 103.853C20.9893 103.218 21.1573 102.67 21.498 102.208C21.8433 101.741 22.31 101.382 22.898 101.13C23.4907 100.878 24.1533 100.752 24.886 100.752C25.7587 100.752 26.4913 100.89 27.084 101.165C27.6813 101.436 28.134 101.804 28.442 102.271C28.7547 102.733 28.9157 103.249 28.925 103.818H26.874C26.818 103.286 26.6103 102.913 26.251 102.698C25.8917 102.483 25.4483 102.376 24.921 102.376C24.375 102.376 23.941 102.493 23.619 102.726C23.297 102.955 23.136 103.251 23.136 103.615C23.136 103.909 23.2317 104.147 23.423 104.329C23.619 104.511 23.9877 104.66 24.529 104.777L26.265 105.134C26.881 105.255 27.3733 105.435 27.742 105.673C28.1107 105.911 28.386 106.179 28.568 106.478C28.7547 106.777 28.876 107.082 28.932 107.395C28.9927 107.703 29.023 107.988 29.023 108.249C29.023 108.795 28.8527 109.287 28.512 109.726C28.1713 110.16 27.693 110.505 27.077 110.762C26.4657 111.014 25.7517 111.14 24.935 111.14ZM30.8137 100.878H32.8507V111H30.8137V100.878ZM38.9213 111.14C38.422 111.14 37.932 111.077 37.4513 110.951C36.9707 110.825 36.5297 110.636 36.1283 110.384C35.7317 110.132 35.405 109.817 35.1483 109.439C34.8917 109.061 34.7377 108.618 34.6863 108.109H36.7793C36.882 108.566 37.1247 108.919 37.5073 109.166C37.8947 109.413 38.3637 109.537 38.9143 109.537C39.4697 109.537 39.948 109.432 40.3493 109.222C40.7553 109.012 40.9583 108.692 40.9583 108.263C40.9583 107.88 40.795 107.596 40.4683 107.409C40.1417 107.222 39.7333 107.08 39.2433 106.982L37.4933 106.625C36.728 106.48 36.1213 106.177 35.6733 105.715C35.2253 105.253 34.9943 104.632 34.9803 103.853C34.9757 103.218 35.1437 102.67 35.4843 102.208C35.8297 101.741 36.2963 101.382 36.8843 101.13C37.477 100.878 38.1397 100.752 38.8723 100.752C39.745 100.752 40.4777 100.89 41.0703 101.165C41.6677 101.436 42.1203 101.804 42.4283 102.271C42.741 102.733 42.902 103.249 42.9113 103.818H40.8603C40.8043 103.286 40.5967 102.913 40.2373 102.698C39.878 102.483 39.4347 102.376 38.9073 102.376C38.3613 102.376 37.9273 102.493 37.6053 102.726C37.2833 102.955 37.1223 103.251 37.1223 103.615C37.1223 103.909 37.218 104.147 37.4093 104.329C37.6053 104.511 37.974 104.66 38.5153 104.777L40.2513 105.134C40.8673 105.255 41.3597 105.435 41.7283 105.673C42.097 105.911 42.3723 106.179 42.5543 106.478C42.741 106.777 42.8623 107.082 42.9183 107.395C42.979 107.703 43.0093 107.988 43.0093 108.249C43.0093 108.795 42.839 109.287 42.4983 109.726C42.1577 110.16 41.6793 110.505 41.0633 110.762C40.452 111.014 39.738 111.14 38.9213 111.14ZM44.8 111V100.878H51.751L51.744 102.6H46.851V105.057H51.1V106.744H46.837V109.257L51.821 109.264V111H44.8Z" fill="white"/>
<path d="M28.985 28.201H22.2314H21L25.7015 35.4397L21 42.6785H22.2314H28.985L33.6865 35.4397L28.985 28.201Z" fill="white"/>
<path d="M41.597 21H30.3658L39.7314 35.5148L30.3658 50.0297H41.597L51 35.5148L41.597 21Z" fill="white"/>
<path d="M95.9167 112.042C95.7317 112.042 95.5524 111.978 95.41 111.86C95.2481 111.725 95.1462 111.532 95.1269 111.323C95.1076 111.113 95.1724 110.905 95.3071 110.743L98.8537 106.5L95.4337 102.249C95.3009 102.085 95.2388 101.875 95.2611 101.666C95.2834 101.456 95.3882 101.264 95.5525 101.132C95.7181 100.987 95.9369 100.917 96.1564 100.939C96.3758 100.962 96.5758 101.075 96.7083 101.251L100.532 106.001C100.772 106.293 100.772 106.715 100.532 107.007L96.5737 111.757C96.4127 111.951 96.1686 112.057 95.9167 112.042Z" fill="white"/>
</svg>
