<svg width="121" height="133" viewBox="0 0 121 133" fill="none" xmlns="http://www.w3.org/2000/svg">
<rect width="121" height="133" rx="13.4876" fill="#1A213D"/>
<path d="M21.0001 47.7928V50H26.3809V44.3594L21.0001 47.7928Z" fill="#F28B2D"/>
<path d="M33.0582 21H21V44.1143L26.3808 40.7422H26.4456H32.4748C39.217 40.7422 44.7275 37.3701 44.7275 30.8098V30.7485C44.7275 24.8626 40.2542 21 33.0582 21ZM39.2818 30.9324C39.2818 33.9367 36.7535 36.0826 32.6692 36.0826H26.3808V25.6597H32.6692C36.6886 25.6597 39.2818 27.4377 39.2818 30.8098V30.9324Z" fill="white"/>
<path d="M20.385 75L24.011 64.878H26.167L29.786 75H27.749L26.923 72.655H23.283L22.436 75H20.385ZM23.738 70.87H26.433L25.096 66.852L23.738 70.87ZM33.5498 75.14C33.1065 75.14 32.6725 75.049 32.2478 74.867C31.8278 74.685 31.4801 74.419 31.2048 74.069C30.9295 73.7143 30.7918 73.2803 30.7918 72.767V67.762H32.8358V72.508C32.8358 72.844 32.9455 73.1193 33.1648 73.334C33.3841 73.5487 33.7061 73.656 34.1308 73.656C34.5275 73.656 34.8448 73.5533 35.0828 73.348C35.3208 73.138 35.4398 72.8463 35.4398 72.473V67.762H37.4628V75H35.9228L35.6848 73.565C35.6008 73.9897 35.4421 74.3163 35.2088 74.545C34.9801 74.769 34.7165 74.923 34.4178 75.007C34.1238 75.0957 33.8345 75.14 33.5498 75.14ZM41.478 75.126C40.9413 75.126 40.5166 75.063 40.204 74.937C39.896 74.811 39.6673 74.6453 39.518 74.44C39.3686 74.23 39.273 73.999 39.231 73.747C39.189 73.4903 39.168 73.2313 39.168 72.97V64.598H41.17V72.718C41.17 72.984 41.2283 73.201 41.345 73.369C41.4616 73.537 41.6763 73.6373 41.989 73.67L42.332 73.691V74.951C42.192 75.0023 42.0473 75.0443 41.898 75.077C41.7533 75.1097 41.6133 75.126 41.478 75.126ZM45.7523 75.14C45.057 75.14 44.476 74.9487 44.0093 74.566C43.5427 74.1833 43.3093 73.6373 43.3093 72.928C43.3093 72.1347 43.6033 71.5327 44.1913 71.122C44.784 70.7067 45.722 70.492 47.0053 70.478L47.9083 70.464V70.03C47.9083 69.6987 47.8103 69.4443 47.6143 69.267C47.423 69.085 47.1243 68.9963 46.7183 69.001C46.4197 69.0057 46.135 69.0757 45.8643 69.211C45.5983 69.3463 45.4163 69.582 45.3183 69.918H43.6173C43.6547 69.134 43.9697 68.5553 44.5623 68.182C45.155 67.8087 45.904 67.622 46.8093 67.622C47.92 67.622 48.7063 67.8273 49.1683 68.238C49.635 68.644 49.8683 69.2017 49.8683 69.911V75H48.1603L47.9923 73.754C47.745 74.2767 47.4347 74.6383 47.0613 74.839C46.6927 75.0397 46.2563 75.14 45.7523 75.14ZM46.4383 73.796C46.6857 73.796 46.9213 73.74 47.1453 73.628C47.3693 73.5113 47.5513 73.362 47.6913 73.18C47.836 72.9933 47.9083 72.795 47.9083 72.585V71.514L47.1733 71.528C46.8327 71.5327 46.5153 71.5723 46.2213 71.647C45.9273 71.7217 45.6893 71.8477 45.5073 72.025C45.33 72.1977 45.2413 72.431 45.2413 72.725C45.2413 73.061 45.3557 73.3247 45.5843 73.516C45.8177 73.7027 46.1023 73.796 46.4383 73.796ZM63.0918 64.878L59.5988 75H57.2818L53.8168 64.878H55.7698L58.4438 72.627L61.1388 64.878H63.0918ZM66.3075 64.885V66.726H64.3195V64.885H66.3075ZM66.2865 67.762V75H64.3335V67.762H66.2865ZM68.1797 75V67.762H70.1467V69.477C70.3194 68.9217 70.6017 68.4737 70.9937 68.133C71.3857 67.7923 71.8687 67.622 72.4427 67.622C72.5967 67.622 72.7017 67.636 72.7577 67.664V69.61C72.7157 69.596 72.6644 69.5867 72.6037 69.582C72.5477 69.5727 72.4964 69.5657 72.4497 69.561C71.6424 69.491 71.0684 69.5983 70.7277 69.883C70.3917 70.1677 70.2237 70.5527 70.2237 71.038V75H68.1797ZM78.4276 69.183H76.8176L76.8316 73.04C76.8316 73.306 76.8829 73.474 76.9856 73.544C77.0882 73.6093 77.2516 73.642 77.4756 73.642H78.4486V74.902C78.3506 74.944 78.2036 74.9837 78.0076 75.021C77.8116 75.0583 77.5362 75.077 77.1816 75.077C76.5469 75.077 76.0546 74.9953 75.7046 74.832C75.3592 74.6687 75.1189 74.44 74.9836 74.146C74.8482 73.852 74.7806 73.5113 74.7806 73.124V69.183H73.6046V67.762H74.8506L75.3616 65.578H76.8176V67.755H78.4276V69.183ZM82.5361 75.14C82.0928 75.14 81.6588 75.049 81.2341 74.867C80.8141 74.685 80.4665 74.419 80.1911 74.069C79.9158 73.7143 79.7781 73.2803 79.7781 72.767V67.762H81.8221V72.508C81.8221 72.844 81.9318 73.1193 82.1511 73.334C82.3705 73.5487 82.6925 73.656 83.1171 73.656C83.5138 73.656 83.8311 73.5533 84.0691 73.348C84.3071 73.138 84.4261 72.8463 84.4261 72.473V67.762H86.4491V75H84.9091L84.6711 73.565C84.5871 73.9897 84.4285 74.3163 84.1951 74.545C83.9665 74.769 83.7028 74.923 83.4041 75.007C83.1101 75.0957 82.8208 75.14 82.5361 75.14ZM90.2133 75.14C89.5179 75.14 88.9369 74.9487 88.4703 74.566C88.0036 74.1833 87.7703 73.6373 87.7703 72.928C87.7703 72.1347 88.0643 71.5327 88.6523 71.122C89.2449 70.7067 90.1829 70.492 91.4663 70.478L92.3693 70.464V70.03C92.3693 69.6987 92.2713 69.4443 92.0753 69.267C91.8839 69.085 91.5853 68.9963 91.1793 69.001C90.8806 69.0057 90.5959 69.0757 90.3253 69.211C90.0593 69.3463 89.8773 69.582 89.7793 69.918H88.0783C88.1156 69.134 88.4306 68.5553 89.0233 68.182C89.6159 67.8087 90.3649 67.622 91.2703 67.622C92.3809 67.622 93.1673 67.8273 93.6293 68.238C94.0959 68.644 94.3293 69.2017 94.3293 69.911V75H92.6213L92.4533 73.754C92.2059 74.2767 91.8956 74.6383 91.5223 74.839C91.1536 75.0397 90.7173 75.14 90.2133 75.14ZM90.8993 73.796C91.1466 73.796 91.3823 73.74 91.6063 73.628C91.8303 73.5113 92.0123 73.362 92.1523 73.18C92.2969 72.9933 92.3693 72.795 92.3693 72.585V71.514L91.6343 71.528C91.2936 71.5327 90.9763 71.5723 90.6823 71.647C90.3883 71.7217 90.1503 71.8477 89.9683 72.025C89.7909 72.1977 89.7023 72.431 89.7023 72.725C89.7023 73.061 89.8166 73.3247 90.0453 73.516C90.2786 73.7027 90.5633 73.796 90.8993 73.796ZM98.4487 75.126C97.912 75.126 97.4873 75.063 97.1747 74.937C96.8667 74.811 96.638 74.6453 96.4887 74.44C96.3393 74.23 96.2437 73.999 96.2017 73.747C96.1597 73.4903 96.1387 73.2313 96.1387 72.97V64.598H98.1407V72.718C98.1407 72.984 98.199 73.201 98.3157 73.369C98.4323 73.537 98.647 73.6373 98.9597 73.67L99.3027 73.691V74.951C99.1627 75.0023 99.018 75.0443 98.8687 75.077C98.724 75.1097 98.584 75.126 98.4487 75.126ZM25.257 82.738C26.0177 82.738 26.6943 82.892 27.287 83.2C27.8843 83.5033 28.365 83.9187 28.729 84.446C29.0977 84.9733 29.3147 85.5683 29.38 86.231H27.238C27.14 85.7037 26.9207 85.2697 26.58 84.929C26.2393 84.5883 25.7773 84.418 25.194 84.418C24.4847 84.418 23.927 84.684 23.521 85.216C23.1197 85.7433 22.919 86.6323 22.919 87.883C22.919 89.143 23.1197 90.0553 23.521 90.62C23.927 91.18 24.4847 91.46 25.194 91.46C25.7773 91.46 26.2393 91.2663 26.58 90.879C26.9207 90.487 27.14 90.0273 27.238 89.5H29.38C29.3193 89.9807 29.2027 90.4403 29.03 90.879C28.8573 91.3177 28.6123 91.7073 28.295 92.048C27.9777 92.384 27.5693 92.65 27.07 92.846C26.5753 93.042 25.971 93.14 25.257 93.14C24.3143 93.14 23.5 92.9207 22.814 92.482C22.128 92.0433 21.5983 91.4273 21.225 90.634C20.8563 89.8407 20.672 88.9143 20.672 87.855C20.672 86.791 20.8563 85.8787 21.225 85.118C21.5937 84.3527 22.1187 83.7647 22.8 83.354C23.486 82.9433 24.305 82.738 25.257 82.738ZM33.0028 82.885V84.726H31.0148V82.885H33.0028ZM32.9818 85.762V93H31.0288V85.762H32.9818ZM36.514 89.85C36.5093 90.4053 36.6423 90.8463 36.913 91.173C37.1837 91.4997 37.564 91.663 38.054 91.663C38.404 91.663 38.7097 91.5883 38.971 91.439C39.237 91.2897 39.4213 91.0447 39.524 90.704H41.365C41.2857 91.2173 41.0803 91.656 40.749 92.02C40.4223 92.384 40.0257 92.6617 39.559 92.853C39.0923 93.0443 38.607 93.14 38.103 93.14C37.3843 93.14 36.7543 92.9907 36.213 92.692C35.6717 92.3887 35.2493 91.9617 34.946 91.411C34.6427 90.8603 34.491 90.2117 34.491 89.465C34.491 88.7417 34.6287 88.0907 34.904 87.512C35.1793 86.9287 35.5783 86.469 36.101 86.133C36.6283 85.7923 37.2607 85.622 37.998 85.622C38.7353 85.622 39.3537 85.7783 39.853 86.091C40.357 86.399 40.735 86.8307 40.987 87.386C41.2437 87.9367 41.372 88.5737 41.372 89.297V89.85H36.514ZM36.507 88.632H39.461C39.461 88.1933 39.3397 87.82 39.097 87.512C38.8543 87.204 38.488 87.05 37.998 87.05C37.6807 87.05 37.41 87.127 37.186 87.281C36.9667 87.435 36.7987 87.6333 36.682 87.876C36.5653 88.114 36.507 88.366 36.507 88.632ZM42.791 93V85.762H44.8V86.784C44.968 86.5227 45.2177 86.2777 45.549 86.049C45.8803 85.8157 46.3307 85.699 46.9 85.699C47.3433 85.699 47.7563 85.7853 48.139 85.958C48.5263 86.1307 48.839 86.4037 49.077 86.777C49.315 87.1457 49.434 87.6287 49.434 88.226V93H47.39V88.478C47.39 88.086 47.271 87.792 47.033 87.596C46.7997 87.4 46.5173 87.302 46.186 87.302C45.85 87.302 45.5397 87.3907 45.255 87.568C44.975 87.7453 44.835 88.0113 44.835 88.366V93H42.791ZM55.1717 87.183H53.5617L53.5757 91.04C53.5757 91.306 53.6271 91.474 53.7297 91.544C53.8324 91.6093 53.9957 91.642 54.2197 91.642H55.1927V92.902C55.0947 92.944 54.9477 92.9837 54.7517 93.021C54.5557 93.0583 54.2804 93.077 53.9257 93.077C53.2911 93.077 52.7987 92.9953 52.4487 92.832C52.1034 92.6687 51.8631 92.44 51.7277 92.146C51.5924 91.852 51.5247 91.5113 51.5247 91.124V87.183H50.3487V85.762H51.5947L52.1057 83.578H53.5617V85.755H55.1717V87.183ZM58.7256 85.762V93H56.7726V85.762H58.7256ZM57.9766 82.878H59.9856L58.4526 84.915L56.9686 84.901L57.9766 82.878ZM64.9815 85.762V87.183H63.4555V93H61.4115V87.183H60.0745V85.762H61.4115V84.719C61.4115 84.1357 61.5818 83.683 61.9225 83.361C62.2678 83.039 62.7555 82.878 63.3855 82.878H65.0445L65.0515 84.236H64.0995C63.8381 84.236 63.6585 84.3013 63.5605 84.432C63.4671 84.558 63.4205 84.768 63.4205 85.062V85.762H64.9815ZM68.2575 82.885V84.726H66.2695V82.885H68.2575ZM68.2365 85.762V93H66.2835V85.762H68.2365ZM73.1948 85.622C73.8014 85.622 74.3241 85.7457 74.7628 85.993C75.2061 86.2403 75.5538 86.574 75.8058 86.994C76.0624 87.414 76.2094 87.883 76.2468 88.401H74.5458C74.4991 88.1117 74.3684 87.8363 74.1538 87.575C73.9438 87.309 73.6288 87.176 73.2088 87.176C72.7328 87.176 72.3454 87.3603 72.0468 87.729C71.7528 88.093 71.6058 88.6483 71.6058 89.395C71.6058 90.1043 71.7504 90.6643 72.0398 91.075C72.3291 91.4857 72.7328 91.691 73.2508 91.691C73.5261 91.691 73.7548 91.6233 73.9368 91.488C74.1234 91.3527 74.2681 91.1917 74.3708 91.005C74.4734 90.8137 74.5388 90.6363 74.5668 90.473H76.2258C76.1931 90.9723 76.0484 91.425 75.7918 91.831C75.5351 92.2323 75.1851 92.552 74.7418 92.79C74.3031 93.0233 73.7874 93.14 73.1948 93.14C72.5228 93.14 71.9231 92.9907 71.3958 92.692C70.8684 92.3933 70.4531 91.9663 70.1498 91.411C69.8511 90.851 69.7018 90.1837 69.7018 89.409C69.7018 88.6623 69.8464 88.0043 70.1358 87.435C70.4251 86.8657 70.8311 86.4223 71.3538 86.105C71.8764 85.783 72.4901 85.622 73.1948 85.622ZM79.7133 93.14C79.0179 93.14 78.4369 92.9487 77.9703 92.566C77.5036 92.1833 77.2703 91.6373 77.2703 90.928C77.2703 90.1347 77.5643 89.5327 78.1523 89.122C78.7449 88.7067 79.6829 88.492 80.9663 88.478L81.8693 88.464V88.03C81.8693 87.6987 81.7713 87.4443 81.5753 87.267C81.3839 87.085 81.0853 86.9963 80.6793 87.001C80.3806 87.0057 80.0959 87.0757 79.8253 87.211C79.5593 87.3463 79.3773 87.582 79.2793 87.918H77.5783C77.6156 87.134 77.9306 86.5553 78.5233 86.182C79.1159 85.8087 79.8649 85.622 80.7703 85.622C81.8809 85.622 82.6673 85.8273 83.1293 86.238C83.5959 86.644 83.8293 87.2017 83.8293 87.911V93H82.1213L81.9533 91.754C81.7059 92.2767 81.3956 92.6383 81.0223 92.839C80.6536 93.0397 80.2173 93.14 79.7133 93.14ZM80.3993 91.796C80.6466 91.796 80.8823 91.74 81.1063 91.628C81.3303 91.5113 81.5123 91.362 81.6523 91.18C81.7969 90.9933 81.8693 90.795 81.8693 90.585V89.514L81.1343 89.528C80.7936 89.5327 80.4763 89.5723 80.1823 89.647C79.8883 89.7217 79.6503 89.8477 79.4683 90.025C79.2909 90.1977 79.2023 90.431 79.2023 90.725C79.2023 91.061 79.3166 91.3247 79.5453 91.516C79.7786 91.7027 80.0633 91.796 80.3993 91.796ZM21.134 111V100.878H24.858C25.5953 100.878 26.2557 101.006 26.839 101.263C27.4223 101.515 27.882 101.888 28.218 102.383C28.5587 102.878 28.729 103.482 28.729 104.196C28.729 105.204 28.4 105.988 27.742 106.548C27.0887 107.108 26.216 107.388 25.124 107.388H23.192V111H21.134ZM23.171 105.806H25.068C25.5767 105.806 25.9943 105.643 26.321 105.316C26.6523 104.985 26.818 104.576 26.818 104.091C26.818 103.587 26.6453 103.188 26.3 102.894C25.9547 102.595 25.5347 102.446 25.04 102.446H23.171V105.806ZM32.8014 111.14C32.092 111.14 31.4737 110.988 30.9464 110.685C30.4237 110.382 30.0177 109.952 29.7284 109.397C29.4437 108.842 29.3014 108.184 29.3014 107.423C29.3014 106.662 29.4437 105.997 29.7284 105.428C30.0177 104.859 30.4237 104.415 30.9464 104.098C31.4737 103.781 32.0944 103.622 32.8084 103.622C33.5224 103.622 34.1407 103.778 34.6634 104.091C35.186 104.404 35.5897 104.845 35.8744 105.414C36.159 105.979 36.3014 106.648 36.3014 107.423C36.3014 108.151 36.1614 108.795 35.8814 109.355C35.606 109.91 35.207 110.347 34.6844 110.664C34.1664 110.981 33.5387 111.14 32.8014 111.14ZM32.8084 109.621C33.1677 109.621 33.457 109.516 33.6764 109.306C33.8957 109.096 34.0544 108.821 34.1524 108.48C34.255 108.135 34.3064 107.759 34.3064 107.353C34.3064 106.97 34.2597 106.611 34.1664 106.275C34.073 105.934 33.9167 105.659 33.6974 105.449C33.4827 105.234 33.1864 105.127 32.8084 105.127C32.449 105.127 32.1574 105.227 31.9334 105.428C31.714 105.629 31.553 105.897 31.4504 106.233C31.3477 106.569 31.2964 106.942 31.2964 107.353C31.2964 107.731 31.343 108.095 31.4364 108.445C31.5297 108.79 31.686 109.073 31.9054 109.292C32.1247 109.511 32.4257 109.621 32.8084 109.621ZM40.4997 111.14C39.9911 111.14 39.5057 111.058 39.0437 110.895C38.5817 110.727 38.1874 110.466 37.8607 110.111C37.5341 109.756 37.3287 109.292 37.2447 108.718H39.0157C39.1044 109.105 39.3004 109.374 39.6037 109.523C39.9117 109.668 40.2057 109.74 40.4857 109.74C40.8777 109.74 41.1927 109.679 41.4307 109.558C41.6734 109.432 41.7947 109.241 41.7947 108.984C41.7947 108.788 41.7224 108.632 41.5777 108.515C41.4377 108.398 41.2044 108.31 40.8777 108.249L39.6037 107.983C38.9644 107.848 38.4487 107.619 38.0567 107.297C37.6694 106.97 37.4734 106.508 37.4687 105.911C37.4641 105.258 37.7207 104.714 38.2387 104.28C38.7614 103.841 39.5174 103.622 40.5067 103.622C41.3981 103.622 42.1097 103.82 42.6417 104.217C43.1784 104.609 43.4514 105.16 43.4607 105.869H41.7527C41.7014 105.589 41.5614 105.374 41.3327 105.225C41.1087 105.071 40.8264 104.994 40.4857 104.994C40.1311 104.994 39.8394 105.057 39.6107 105.183C39.3821 105.309 39.2677 105.5 39.2677 105.757C39.2677 105.948 39.3611 106.1 39.5477 106.212C39.7344 106.319 40.0237 106.413 40.4157 106.492L41.5917 106.758C42.1284 106.889 42.5367 107.08 42.8167 107.332C43.1014 107.584 43.2927 107.85 43.3907 108.13C43.4934 108.405 43.5447 108.653 43.5447 108.872C43.5447 109.595 43.2624 110.155 42.6977 110.552C42.1331 110.944 41.4004 111.14 40.4997 111.14ZM48.2768 113.394C46.9888 113.394 46.0088 113.231 45.3368 112.904C44.6695 112.577 44.3358 112.148 44.3358 111.616C44.3358 111.369 44.4012 111.163 44.5318 111C44.6625 110.832 44.8142 110.697 44.9868 110.594C45.1642 110.491 45.3252 110.414 45.4698 110.363C45.6192 110.307 45.7102 110.27 45.7428 110.251C45.6682 110.209 45.5585 110.148 45.4138 110.069C45.2738 109.985 45.1455 109.873 45.0288 109.733C44.9122 109.588 44.8538 109.402 44.8538 109.173C44.8538 108.916 44.9752 108.681 45.2178 108.466C45.4652 108.247 45.8385 108.093 46.3378 108.004C45.8572 107.785 45.4932 107.484 45.2458 107.101C45.0032 106.714 44.8818 106.319 44.8818 105.918C44.8818 105.442 45.0288 105.036 45.3228 104.7C45.6215 104.359 46.0298 104.1 46.5478 103.923C47.0658 103.741 47.6515 103.65 48.3048 103.65C48.8042 103.65 49.2125 103.704 49.5298 103.811C49.8472 103.914 50.1412 104.049 50.4118 104.217C50.5565 104.161 50.7572 104.082 51.0138 103.979C51.2752 103.876 51.5435 103.769 51.8188 103.657C52.0988 103.545 52.3392 103.447 52.5398 103.363L52.5328 104.945L51.2798 105.148C51.3312 105.279 51.3708 105.416 51.3988 105.561C51.4268 105.701 51.4408 105.818 51.4408 105.911C51.4408 106.331 51.3172 106.723 51.0698 107.087C50.8225 107.451 50.4562 107.745 49.9708 107.969C49.4855 108.193 48.8835 108.305 48.1648 108.305C48.0762 108.305 47.9572 108.303 47.8078 108.298C47.6585 108.293 47.5395 108.286 47.4508 108.277C47.1755 108.291 46.9865 108.326 46.8838 108.382C46.7812 108.438 46.7298 108.503 46.7298 108.578C46.7298 108.69 46.8325 108.765 47.0378 108.802C47.2478 108.839 47.5675 108.87 47.9968 108.893C48.1462 108.902 48.3538 108.916 48.6198 108.935C48.8858 108.949 49.1798 108.965 49.5018 108.984C50.3838 109.045 51.0442 109.264 51.4828 109.642C51.9215 110.015 52.1408 110.487 52.1408 111.056C52.1408 111.737 51.8188 112.297 51.1748 112.736C50.5355 113.175 49.5695 113.394 48.2768 113.394ZM48.2208 107.164C48.6082 107.164 48.9185 107.059 49.1518 106.849C49.3898 106.639 49.5088 106.35 49.5088 105.981C49.5088 105.603 49.3898 105.3 49.1518 105.071C48.9185 104.842 48.6082 104.728 48.2208 104.728C47.8335 104.728 47.5208 104.845 47.2828 105.078C47.0448 105.307 46.9258 105.608 46.9258 105.981C46.9258 106.34 47.0402 106.627 47.2688 106.842C47.5022 107.057 47.8195 107.164 48.2208 107.164ZM48.6058 112.253C49.1752 112.253 49.5812 112.183 49.8238 112.043C50.0665 111.903 50.1878 111.702 50.1878 111.441C50.1878 111.222 50.0945 111.044 49.9078 110.909C49.7212 110.769 49.4482 110.687 49.0888 110.664L47.4298 110.552C47.1032 110.533 46.8395 110.61 46.6388 110.783C46.4382 110.956 46.3378 111.154 46.3378 111.378C46.3378 111.681 46.5222 111.903 46.8908 112.043C47.2595 112.183 47.8312 112.253 48.6058 112.253ZM53.7148 111V103.762H55.6818V105.477C55.8545 104.922 56.1368 104.474 56.5288 104.133C56.9208 103.792 57.4038 103.622 57.9778 103.622C58.1318 103.622 58.2368 103.636 58.2928 103.664V105.61C58.2508 105.596 58.1995 105.587 58.1388 105.582C58.0828 105.573 58.0315 105.566 57.9848 105.561C57.1775 105.491 56.6035 105.598 56.2628 105.883C55.9268 106.168 55.7588 106.553 55.7588 107.038V111H53.7148ZM61.4203 111.14C60.725 111.14 60.144 110.949 59.6773 110.566C59.2106 110.183 58.9773 109.637 58.9773 108.928C58.9773 108.135 59.2713 107.533 59.8593 107.122C60.452 106.707 61.39 106.492 62.6733 106.478L63.5763 106.464V106.03C63.5763 105.699 63.4783 105.444 63.2823 105.267C63.091 105.085 62.7923 104.996 62.3863 105.001C62.0876 105.006 61.803 105.076 61.5323 105.211C61.2663 105.346 61.0843 105.582 60.9863 105.918H59.2853C59.3226 105.134 59.6376 104.555 60.2303 104.182C60.823 103.809 61.572 103.622 62.4773 103.622C63.588 103.622 64.3743 103.827 64.8363 104.238C65.303 104.644 65.5363 105.202 65.5363 105.911V111H63.8283L63.6603 109.754C63.413 110.277 63.1026 110.638 62.7293 110.839C62.3606 111.04 61.9243 111.14 61.4203 111.14ZM62.1063 109.796C62.3536 109.796 62.5893 109.74 62.8133 109.628C63.0373 109.511 63.2193 109.362 63.3593 109.18C63.504 108.993 63.5763 108.795 63.5763 108.585V107.514L62.8413 107.528C62.5006 107.533 62.1833 107.572 61.8893 107.647C61.5953 107.722 61.3573 107.848 61.1753 108.025C60.998 108.198 60.9093 108.431 60.9093 108.725C60.9093 109.061 61.0236 109.325 61.2523 109.516C61.4856 109.703 61.7703 109.796 62.1063 109.796ZM70.0337 111.14C69.063 111.14 68.307 110.806 67.7657 110.139C67.2244 109.467 66.9537 108.534 66.9537 107.339C66.9537 106.205 67.201 105.302 67.6957 104.63C68.1904 103.958 68.902 103.622 69.8307 103.622C70.3487 103.622 70.799 103.732 71.1817 103.951C71.5644 104.17 71.842 104.434 72.0147 104.742V100.598H74.0657V111H72.5817L72.3507 109.516C72.262 109.782 72.1267 110.039 71.9447 110.286C71.7674 110.533 71.5224 110.739 71.2097 110.902C70.9017 111.061 70.5097 111.14 70.0337 111.14ZM70.4817 109.67C70.9997 109.67 71.3847 109.49 71.6367 109.131C71.8887 108.772 72.0147 108.165 72.0147 107.311C72.0054 105.841 71.499 105.106 70.4957 105.106C70.0524 105.106 69.6837 105.276 69.3897 105.617C69.0957 105.953 68.9487 106.518 68.9487 107.311C68.9487 108.118 69.0864 108.713 69.3617 109.096C69.637 109.479 70.0104 109.67 70.4817 109.67ZM78.9303 111.14C78.2209 111.14 77.6026 110.988 77.0753 110.685C76.5526 110.382 76.1466 109.952 75.8573 109.397C75.5726 108.842 75.4303 108.184 75.4303 107.423C75.4303 106.662 75.5726 105.997 75.8573 105.428C76.1466 104.859 76.5526 104.415 77.0753 104.098C77.6026 103.781 78.2233 103.622 78.9373 103.622C79.6513 103.622 80.2696 103.778 80.7923 104.091C81.3149 104.404 81.7186 104.845 82.0033 105.414C82.2879 105.979 82.4303 106.648 82.4303 107.423C82.4303 108.151 82.2903 108.795 82.0103 109.355C81.7349 109.91 81.3359 110.347 80.8133 110.664C80.2953 110.981 79.6676 111.14 78.9303 111.14ZM78.9373 109.621C79.2966 109.621 79.5859 109.516 79.8053 109.306C80.0246 109.096 80.1833 108.821 80.2813 108.48C80.3839 108.135 80.4353 107.759 80.4353 107.353C80.4353 106.97 80.3886 106.611 80.2953 106.275C80.2019 105.934 80.0456 105.659 79.8263 105.449C79.6116 105.234 79.3153 105.127 78.9373 105.127C78.5779 105.127 78.2863 105.227 78.0623 105.428C77.8429 105.629 77.6819 105.897 77.5793 106.233C77.4766 106.569 77.4253 106.942 77.4253 107.353C77.4253 107.731 77.4719 108.095 77.5653 108.445C77.6586 108.79 77.8149 109.073 78.0343 109.292C78.2536 109.511 78.5546 109.621 78.9373 109.621Z" fill="white"/>
<path d="M95.9167 112.042C95.7317 112.042 95.5524 111.978 95.41 111.86C95.2481 111.725 95.1462 111.532 95.1269 111.323C95.1076 111.113 95.1724 110.905 95.3071 110.743L98.8537 106.5L95.4337 102.249C95.3009 102.085 95.2388 101.875 95.2611 101.666C95.2834 101.456 95.3882 101.264 95.5525 101.132C95.7181 100.987 95.9369 100.917 96.1564 100.939C96.3758 100.962 96.5758 101.075 96.7083 101.251L100.532 106.001C100.772 106.293 100.772 106.715 100.532 107.007L96.5737 111.757C96.4127 111.951 96.1686 112.057 95.9167 112.042Z" fill="white"/>
</svg>
