<svg width="121" height="134" viewBox="0 0 121 134" fill="none" xmlns="http://www.w3.org/2000/svg">
<rect width="121" height="134" rx="13.4876" fill="#22468F"/>
<path d="M37.4613 45.3643C37.0258 45.4514 36.5903 45.4514 36.1548 45.4514C30.4936 45.4514 26.4 40.7481 26.4 34.9998V34.9127C26.4 29.1643 30.4936 24.5481 36.1548 24.5481C39.5516 24.5481 42.0774 26.0288 44.429 28.2062L47.7387 24.3739C44.8645 21.6739 41.6419 19.7578 36.1548 19.7578C27.271 19.7578 21 26.6385 21 34.9998V35.0869C21 43.5352 27.3581 50.2417 35.9807 50.2417C38.071 50.2417 39.9 49.9804 41.4678 49.3707L37.4613 45.3643Z" fill="white"/>
<path d="M44.6032 41.6185C43.3838 42.7507 42.1645 43.7088 40.858 44.4056L44.429 47.9765C45.7355 47.1927 46.8677 46.1475 48 45.0152L44.6032 41.6185Z" fill="#F28B2D"/>
<path d="M20.385 75L24.011 64.878H26.167L29.786 75H27.749L26.923 72.655H23.283L22.436 75H20.385ZM23.738 70.87H26.433L25.096 66.852L23.738 70.87ZM33.5498 75.14C33.2138 75.14 32.8825 75.0887 32.5558 74.986C32.2338 74.8833 31.9398 74.7317 31.6738 74.531C31.4078 74.3303 31.1931 74.083 31.0298 73.789C30.8711 73.495 30.7918 73.1543 30.7918 72.767V67.762H32.8358V72.508C32.8358 72.844 32.9455 73.1193 33.1648 73.334C33.3841 73.5487 33.7061 73.656 34.1308 73.656C34.5321 73.656 34.8495 73.5533 35.0828 73.348C35.3208 73.138 35.4398 72.8463 35.4398 72.473V67.762H37.4628V75H35.9228L35.6848 73.565C35.6008 73.9897 35.4421 74.3163 35.2088 74.545C34.9801 74.769 34.7165 74.923 34.4178 75.007C34.1238 75.0957 33.8345 75.14 33.5498 75.14ZM41.478 75.126C40.946 75.126 40.5236 75.063 40.211 74.937C39.8983 74.811 39.6673 74.6453 39.518 74.44C39.3686 74.23 39.273 73.999 39.231 73.747C39.189 73.4903 39.168 73.2313 39.168 72.97V64.598H41.17V72.718C41.17 72.984 41.226 73.201 41.338 73.369C41.4546 73.5323 41.6716 73.6327 41.989 73.67L42.332 73.691V74.951C42.192 74.9977 42.0496 75.0373 41.905 75.07C41.7603 75.1073 41.618 75.126 41.478 75.126ZM45.7523 75.14C45.2903 75.14 44.875 75.0537 44.5063 74.881C44.1377 74.7083 43.846 74.4587 43.6313 74.132C43.4167 73.8007 43.3093 73.3993 43.3093 72.928C43.3093 72.1347 43.6057 71.5327 44.1983 71.122C44.791 70.7067 45.7267 70.492 47.0053 70.478L47.9083 70.464V70.03C47.9083 69.6987 47.8103 69.4443 47.6143 69.267C47.423 69.085 47.1243 68.9963 46.7183 69.001C46.4197 69.0057 46.135 69.0757 45.8643 69.211C45.5983 69.3463 45.4163 69.582 45.3183 69.918H43.6173C43.6453 69.3953 43.797 68.966 44.0723 68.63C44.3477 68.2893 44.721 68.0373 45.1923 67.874C45.6683 67.706 46.2073 67.622 46.8093 67.622C47.5513 67.622 48.1463 67.7153 48.5943 67.902C49.0423 68.084 49.3667 68.3477 49.5673 68.693C49.768 69.0337 49.8683 69.4397 49.8683 69.911V75H48.1603L47.9923 73.754C47.745 74.2767 47.4347 74.6383 47.0613 74.839C46.6927 75.0397 46.2563 75.14 45.7523 75.14ZM46.4383 73.796C46.625 73.796 46.8047 73.7633 46.9773 73.698C47.1547 73.628 47.311 73.537 47.4463 73.425C47.5863 73.3083 47.6983 73.1777 47.7823 73.033C47.8663 72.8883 47.9083 72.739 47.9083 72.585V71.514L47.1733 71.528C46.8327 71.5327 46.5153 71.5747 46.2213 71.654C45.9273 71.7287 45.6893 71.8523 45.5073 72.025C45.33 72.1977 45.2413 72.431 45.2413 72.725C45.2413 73.061 45.358 73.3247 45.5913 73.516C45.8247 73.7027 46.107 73.796 46.4383 73.796ZM63.0918 64.878L59.5988 75H57.2818L53.8168 64.878H55.7698L58.4438 72.627L61.1388 64.878H63.0918ZM66.2865 67.762V75H64.3335V67.762H66.2865ZM66.3075 64.885V66.726H64.3195V64.885H66.3075ZM68.1797 75V67.762H70.1467V69.477C70.2634 69.1083 70.4267 68.7863 70.6367 68.511C70.8514 68.231 71.1104 68.014 71.4137 67.86C71.717 67.7013 72.06 67.622 72.4427 67.622C72.508 67.622 72.5687 67.6267 72.6247 67.636C72.6854 67.6407 72.7297 67.65 72.7577 67.664V69.61C72.7157 69.5913 72.6644 69.5797 72.6037 69.575C72.5477 69.5703 72.4964 69.5657 72.4497 69.561C72.0484 69.5283 71.7054 69.54 71.4207 69.596C71.136 69.652 70.905 69.7477 70.7277 69.883C70.5504 70.0183 70.422 70.184 70.3427 70.38C70.2634 70.576 70.2237 70.7953 70.2237 71.038V75H68.1797ZM78.4276 69.183H76.8176L76.8316 73.04C76.8316 73.2173 76.8526 73.3503 76.8946 73.439C76.9412 73.523 77.0112 73.579 77.1046 73.607C77.2026 73.6303 77.3262 73.642 77.4756 73.642H78.4486V74.902C78.3552 74.944 78.2082 74.9837 78.0076 75.021C77.8116 75.0583 77.5362 75.077 77.1816 75.077C76.5469 75.077 76.0546 74.9953 75.7046 74.832C75.3592 74.6687 75.1189 74.44 74.9836 74.146C74.8482 73.852 74.7806 73.5113 74.7806 73.124V69.183H73.6046V67.762H74.8506L75.3616 65.578H76.8176V67.755H78.4276V69.183ZM82.5361 75.14C82.2001 75.14 81.8688 75.0887 81.5421 74.986C81.2201 74.8833 80.9261 74.7317 80.6601 74.531C80.3941 74.3303 80.1795 74.083 80.0161 73.789C79.8575 73.495 79.7781 73.1543 79.7781 72.767V67.762H81.8221V72.508C81.8221 72.844 81.9318 73.1193 82.1511 73.334C82.3705 73.5487 82.6925 73.656 83.1171 73.656C83.5185 73.656 83.8358 73.5533 84.0691 73.348C84.3071 73.138 84.4261 72.8463 84.4261 72.473V67.762H86.4491V75H84.9091L84.6711 73.565C84.5871 73.9897 84.4285 74.3163 84.1951 74.545C83.9665 74.769 83.7028 74.923 83.4041 75.007C83.1101 75.0957 82.8208 75.14 82.5361 75.14ZM90.2133 75.14C89.7513 75.14 89.3359 75.0537 88.9673 74.881C88.5986 74.7083 88.3069 74.4587 88.0923 74.132C87.8776 73.8007 87.7703 73.3993 87.7703 72.928C87.7703 72.1347 88.0666 71.5327 88.6593 71.122C89.2519 70.7067 90.1876 70.492 91.4663 70.478L92.3693 70.464V70.03C92.3693 69.6987 92.2713 69.4443 92.0753 69.267C91.8839 69.085 91.5853 68.9963 91.1793 69.001C90.8806 69.0057 90.5959 69.0757 90.3253 69.211C90.0593 69.3463 89.8773 69.582 89.7793 69.918H88.0783C88.1063 69.3953 88.2579 68.966 88.5333 68.63C88.8086 68.2893 89.1819 68.0373 89.6533 67.874C90.1293 67.706 90.6683 67.622 91.2703 67.622C92.0123 67.622 92.6073 67.7153 93.0553 67.902C93.5033 68.084 93.8276 68.3477 94.0283 68.693C94.2289 69.0337 94.3293 69.4397 94.3293 69.911V75H92.6213L92.4533 73.754C92.2059 74.2767 91.8956 74.6383 91.5223 74.839C91.1536 75.0397 90.7173 75.14 90.2133 75.14ZM90.8993 73.796C91.0859 73.796 91.2656 73.7633 91.4383 73.698C91.6156 73.628 91.7719 73.537 91.9073 73.425C92.0473 73.3083 92.1593 73.1777 92.2433 73.033C92.3273 72.8883 92.3693 72.739 92.3693 72.585V71.514L91.6343 71.528C91.2936 71.5327 90.9763 71.5747 90.6823 71.654C90.3883 71.7287 90.1503 71.8523 89.9683 72.025C89.7909 72.1977 89.7023 72.431 89.7023 72.725C89.7023 73.061 89.8189 73.3247 90.0523 73.516C90.2856 73.7027 90.5679 73.796 90.8993 73.796ZM98.4487 75.126C97.9167 75.126 97.4943 75.063 97.1817 74.937C96.869 74.811 96.638 74.6453 96.4887 74.44C96.3393 74.23 96.2437 73.999 96.2017 73.747C96.1597 73.4903 96.1387 73.2313 96.1387 72.97V64.598H98.1407V72.718C98.1407 72.984 98.1967 73.201 98.3087 73.369C98.4253 73.5323 98.6423 73.6327 98.9597 73.67L99.3027 73.691V74.951C99.1627 74.9977 99.0203 75.0373 98.8757 75.07C98.731 75.1073 98.5887 75.126 98.4487 75.126ZM25.257 82.738C26.0177 82.738 26.6943 82.892 27.287 83.2C27.8843 83.5033 28.365 83.9187 28.729 84.446C29.0977 84.9733 29.3147 85.5683 29.38 86.231H27.238C27.1727 85.881 27.0537 85.5707 26.881 85.3C26.7083 85.0247 26.482 84.81 26.202 84.656C25.922 84.4973 25.586 84.418 25.194 84.418C24.7227 84.418 24.3167 84.5323 23.976 84.761C23.6353 84.9897 23.374 85.3583 23.192 85.867C23.01 86.3757 22.919 87.0477 22.919 87.883C22.919 89.143 23.1197 90.0553 23.521 90.62C23.927 91.18 24.4847 91.46 25.194 91.46C25.586 91.46 25.922 91.3713 26.202 91.194C26.482 91.012 26.7083 90.774 26.881 90.48C27.0537 90.1813 27.1727 89.8547 27.238 89.5H29.38C29.3193 89.9807 29.2027 90.4403 29.03 90.879C28.8573 91.313 28.6123 91.7003 28.295 92.041C27.9777 92.3817 27.5693 92.65 27.07 92.846C26.5707 93.042 25.9663 93.14 25.257 93.14C24.3143 93.14 23.5 92.9207 22.814 92.482C22.128 92.0433 21.5983 91.4273 21.225 90.634C20.8563 89.8407 20.672 88.9143 20.672 87.855C20.672 86.791 20.8563 85.8787 21.225 85.118C21.5937 84.3527 22.121 83.7647 22.807 83.354C23.493 82.9433 24.3097 82.738 25.257 82.738ZM32.9818 85.762V93H31.0288V85.762H32.9818ZM33.0028 82.885V84.726H31.0148V82.885H33.0028ZM36.514 89.85C36.5093 90.2187 36.5677 90.5407 36.689 90.816C36.8103 91.0867 36.9853 91.2967 37.214 91.446C37.4473 91.5907 37.7273 91.663 38.054 91.663C38.404 91.663 38.7097 91.5883 38.971 91.439C39.237 91.2897 39.4213 91.0447 39.524 90.704H41.365C41.2857 91.2173 41.0803 91.656 40.749 92.02C40.4223 92.384 40.0257 92.6617 39.559 92.853C39.0923 93.0443 38.607 93.14 38.103 93.14C37.389 93.14 36.759 92.9907 36.213 92.692C35.6717 92.3887 35.2493 91.9617 34.946 91.411C34.6427 90.8603 34.491 90.2117 34.491 89.465C34.491 88.7417 34.6287 88.0907 34.904 87.512C35.1793 86.9287 35.5783 86.469 36.101 86.133C36.6283 85.7923 37.2607 85.622 37.998 85.622C38.7353 85.622 39.3537 85.7783 39.853 86.091C40.357 86.399 40.735 86.8307 40.987 87.386C41.2437 87.9367 41.372 88.5737 41.372 89.297V89.85H36.514ZM36.507 88.632H39.461C39.461 88.3427 39.4073 88.0767 39.3 87.834C39.1927 87.5913 39.0293 87.4 38.81 87.26C38.5953 87.12 38.3247 87.05 37.998 87.05C37.6807 87.05 37.41 87.127 37.186 87.281C36.9667 87.4303 36.7987 87.6263 36.682 87.869C36.5653 88.1117 36.507 88.366 36.507 88.632ZM42.791 93V85.762H44.8V86.784C44.912 86.6067 45.0567 86.4363 45.234 86.273C45.416 86.105 45.6447 85.9673 45.92 85.86C46.1953 85.7527 46.522 85.699 46.9 85.699C47.3433 85.699 47.7563 85.7853 48.139 85.958C48.5263 86.1307 48.839 86.4037 49.077 86.777C49.315 87.1457 49.434 87.6287 49.434 88.226V93H47.39V88.478C47.39 88.086 47.2733 87.792 47.04 87.596C46.8067 87.4 46.522 87.302 46.186 87.302C45.962 87.302 45.745 87.3417 45.535 87.421C45.3297 87.5003 45.1617 87.6193 45.031 87.778C44.9003 87.9367 44.835 88.1327 44.835 88.366V93H42.791ZM55.1717 87.183H53.5617L53.5757 91.04C53.5757 91.2173 53.5967 91.3503 53.6387 91.439C53.6854 91.523 53.7554 91.579 53.8487 91.607C53.9467 91.6303 54.0704 91.642 54.2197 91.642H55.1927V92.902C55.0994 92.944 54.9524 92.9837 54.7517 93.021C54.5557 93.0583 54.2804 93.077 53.9257 93.077C53.2911 93.077 52.7987 92.9953 52.4487 92.832C52.1034 92.6687 51.8631 92.44 51.7277 92.146C51.5924 91.852 51.5247 91.5113 51.5247 91.124V87.183H50.3487V85.762H51.5947L52.1057 83.578H53.5617V85.755H55.1717V87.183ZM58.7256 85.762V93H56.7726V85.762H58.7256ZM57.9766 82.878H59.9856L58.4526 84.915L56.9686 84.901L57.9766 82.878ZM64.9815 85.762V87.183H63.4555V93H61.4115V87.183H60.0745V85.762H61.4115V84.719C61.4115 84.1357 61.5818 83.683 61.9225 83.361C62.2678 83.039 62.7555 82.878 63.3855 82.878H65.0445L65.0515 84.236H64.0995C63.8381 84.236 63.6585 84.3013 63.5605 84.432C63.4671 84.558 63.4205 84.768 63.4205 85.062V85.762H64.9815ZM68.2365 85.762V93H66.2835V85.762H68.2365ZM68.2575 82.885V84.726H66.2695V82.885H68.2575ZM73.1948 85.622C73.8014 85.622 74.3241 85.7457 74.7628 85.993C75.2061 86.2403 75.5538 86.574 75.8058 86.994C76.0624 87.414 76.2094 87.883 76.2468 88.401H74.5458C74.5131 88.2097 74.4454 88.0207 74.3428 87.834C74.2401 87.6427 74.0954 87.4863 73.9088 87.365C73.7221 87.239 73.4888 87.176 73.2088 87.176C72.7328 87.176 72.3454 87.3603 72.0468 87.729C71.7528 88.093 71.6058 88.6483 71.6058 89.395C71.6058 90.0997 71.7504 90.6597 72.0398 91.075C72.3291 91.4857 72.7328 91.691 73.2508 91.691C73.5261 91.691 73.7548 91.6233 73.9368 91.488C74.1234 91.3527 74.2681 91.1917 74.3708 91.005C74.4734 90.8137 74.5388 90.6363 74.5668 90.473H76.2258C76.1931 90.9723 76.0484 91.425 75.7918 91.831C75.5351 92.2323 75.1851 92.552 74.7418 92.79C74.3031 93.0233 73.7874 93.14 73.1948 93.14C72.5228 93.14 71.9231 92.9907 71.3958 92.692C70.8684 92.3933 70.4531 91.9663 70.1498 91.411C69.8511 90.851 69.7018 90.1837 69.7018 89.409C69.7018 88.6623 69.8464 88.0043 70.1358 87.435C70.4251 86.8657 70.8311 86.4223 71.3538 86.105C71.8811 85.783 72.4948 85.622 73.1948 85.622ZM79.7133 93.14C79.2513 93.14 78.8359 93.0537 78.4673 92.881C78.0986 92.7083 77.8069 92.4587 77.5923 92.132C77.3776 91.8007 77.2703 91.3993 77.2703 90.928C77.2703 90.1347 77.5666 89.5327 78.1593 89.122C78.7519 88.7067 79.6876 88.492 80.9663 88.478L81.8693 88.464V88.03C81.8693 87.6987 81.7713 87.4443 81.5753 87.267C81.3839 87.085 81.0853 86.9963 80.6793 87.001C80.3806 87.0057 80.0959 87.0757 79.8253 87.211C79.5593 87.3463 79.3773 87.582 79.2793 87.918H77.5783C77.6063 87.3953 77.7579 86.966 78.0333 86.63C78.3086 86.2893 78.6819 86.0373 79.1533 85.874C79.6293 85.706 80.1683 85.622 80.7703 85.622C81.5123 85.622 82.1073 85.7153 82.5553 85.902C83.0033 86.084 83.3276 86.3477 83.5283 86.693C83.7289 87.0337 83.8293 87.4397 83.8293 87.911V93H82.1213L81.9533 91.754C81.7059 92.2767 81.3956 92.6383 81.0223 92.839C80.6536 93.0397 80.2173 93.14 79.7133 93.14ZM80.3993 91.796C80.5859 91.796 80.7656 91.7633 80.9383 91.698C81.1156 91.628 81.2719 91.537 81.4073 91.425C81.5473 91.3083 81.6593 91.1777 81.7433 91.033C81.8273 90.8883 81.8693 90.739 81.8693 90.585V89.514L81.1343 89.528C80.7936 89.5327 80.4763 89.5747 80.1823 89.654C79.8883 89.7287 79.6503 89.8523 79.4683 90.025C79.2909 90.1977 79.2023 90.431 79.2023 90.725C79.2023 91.061 79.3189 91.3247 79.5523 91.516C79.7856 91.7027 80.0679 91.796 80.3993 91.796ZM21.134 111V100.878H24.858C25.5953 100.878 26.2557 101.006 26.839 101.263C27.4223 101.515 27.882 101.888 28.218 102.383C28.5587 102.878 28.729 103.482 28.729 104.196C28.729 104.868 28.5797 105.442 28.281 105.918C27.9823 106.394 27.5623 106.758 27.021 107.01C26.4843 107.262 25.852 107.388 25.124 107.388H23.192V111H21.134ZM23.171 105.806H25.068C25.5813 105.806 26.0013 105.643 26.328 105.316C26.6547 104.985 26.818 104.576 26.818 104.091C26.818 103.587 26.6453 103.188 26.3 102.894C25.9547 102.595 25.5347 102.446 25.04 102.446H23.171V105.806ZM30.0078 111V103.762H31.9748V105.477C32.0915 105.108 32.2548 104.786 32.4648 104.511C32.6795 104.231 32.9385 104.014 33.2418 103.86C33.5451 103.701 33.8881 103.622 34.2708 103.622C34.3361 103.622 34.3968 103.627 34.4528 103.636C34.5135 103.641 34.5578 103.65 34.5858 103.664V105.61C34.5438 105.591 34.4925 105.58 34.4318 105.575C34.3758 105.57 34.3245 105.566 34.2778 105.561C33.8765 105.528 33.5335 105.54 33.2488 105.596C32.9641 105.652 32.7331 105.748 32.5558 105.883C32.3785 106.018 32.2501 106.184 32.1708 106.38C32.0915 106.576 32.0518 106.795 32.0518 107.038V111H30.0078ZM37.3343 107.85C37.3296 108.219 37.388 108.541 37.5093 108.816C37.6306 109.087 37.8056 109.297 38.0343 109.446C38.2676 109.591 38.5476 109.663 38.8743 109.663C39.2243 109.663 39.53 109.588 39.7913 109.439C40.0573 109.29 40.2416 109.045 40.3443 108.704H42.1853C42.106 109.217 41.9006 109.656 41.5693 110.02C41.2426 110.384 40.846 110.662 40.3793 110.853C39.9126 111.044 39.4273 111.14 38.9233 111.14C38.2093 111.14 37.5793 110.991 37.0333 110.692C36.492 110.389 36.0696 109.962 35.7663 109.411C35.463 108.86 35.3113 108.212 35.3113 107.465C35.3113 106.742 35.449 106.091 35.7243 105.512C35.9996 104.929 36.3986 104.469 36.9213 104.133C37.4486 103.792 38.081 103.622 38.8183 103.622C39.5556 103.622 40.174 103.778 40.6733 104.091C41.1773 104.399 41.5553 104.831 41.8073 105.386C42.064 105.937 42.1923 106.574 42.1923 107.297V107.85H37.3343ZM37.3273 106.632H40.2813C40.2813 106.343 40.2276 106.077 40.1203 105.834C40.013 105.591 39.8496 105.4 39.6303 105.26C39.4156 105.12 39.145 105.05 38.8183 105.05C38.501 105.05 38.2303 105.127 38.0063 105.281C37.787 105.43 37.619 105.626 37.5023 105.869C37.3856 106.112 37.3273 106.366 37.3273 106.632ZM42.8973 111.259L46.4393 100.878H47.8603L44.3253 111.259H42.8973ZM53.3254 100.738C54.086 100.738 54.7627 100.892 55.3554 101.2C55.9527 101.503 56.4334 101.919 56.7974 102.446C57.166 102.973 57.383 103.568 57.4484 104.231H55.3064C55.241 103.881 55.122 103.571 54.9494 103.3C54.7767 103.025 54.5504 102.81 54.2704 102.656C53.9904 102.497 53.6544 102.418 53.2624 102.418C52.791 102.418 52.385 102.532 52.0444 102.761C51.7037 102.99 51.4424 103.358 51.2604 103.867C51.0784 104.376 50.9874 105.048 50.9874 105.883C50.9874 107.143 51.188 108.055 51.5894 108.62C51.9954 109.18 52.553 109.46 53.2624 109.46C53.6544 109.46 53.9904 109.371 54.2704 109.194C54.5504 109.012 54.7767 108.774 54.9494 108.48C55.122 108.181 55.241 107.855 55.3064 107.5H57.4484C57.3877 107.981 57.271 108.44 57.0984 108.879C56.9257 109.313 56.6807 109.7 56.3634 110.041C56.046 110.382 55.6377 110.65 55.1384 110.846C54.639 111.042 54.0347 111.14 53.3254 111.14C52.3827 111.14 51.5684 110.921 50.8824 110.482C50.1964 110.043 49.6667 109.427 49.2934 108.634C48.9247 107.841 48.7404 106.914 48.7404 105.855C48.7404 104.791 48.9247 103.879 49.2934 103.118C49.662 102.353 50.1894 101.765 50.8754 101.354C51.5614 100.943 52.378 100.738 53.3254 100.738ZM59.2512 111V100.878H62.9752C63.7125 100.878 64.3729 101.006 64.9562 101.263C65.5395 101.515 65.9992 101.888 66.3352 102.383C66.6759 102.878 66.8462 103.482 66.8462 104.196C66.8462 104.868 66.6969 105.442 66.3982 105.918C66.0995 106.394 65.6795 106.758 65.1382 107.01C64.6015 107.262 63.9692 107.388 63.2412 107.388H61.3092V111H59.2512ZM61.2882 105.806H63.1852C63.6985 105.806 64.1185 105.643 64.4452 105.316C64.7719 104.985 64.9352 104.576 64.9352 104.091C64.9352 103.587 64.7625 103.188 64.4172 102.894C64.0719 102.595 63.6519 102.446 63.1572 102.446H61.2882V105.806ZM68.384 111V100.878H75.335L75.328 102.6H70.435V105.057H74.684V106.744H70.421V109.257L75.405 109.264V111H68.384Z" fill="white"/>
<path d="M95.9167 112.042C95.7317 112.042 95.5524 111.978 95.41 111.86C95.2481 111.725 95.1462 111.532 95.1269 111.323C95.1076 111.113 95.1724 110.905 95.3071 110.743L98.8537 106.5L95.4337 102.249C95.3009 102.085 95.2388 101.875 95.2611 101.666C95.2834 101.456 95.3882 101.264 95.5525 101.132C95.7181 100.987 95.9369 100.917 96.1564 100.939C96.3758 100.962 96.5758 101.075 96.7083 101.251L100.532 106.001C100.772 106.293 100.772 106.715 100.532 107.007L96.5737 111.757C96.4127 111.951 96.1686 112.057 95.9167 112.042Z" fill="white"/>
</svg>
