<svg width="19" height="19" viewBox="0 0 19 19" fill="none" xmlns="http://www.w3.org/2000/svg">
<path d="M7.91666 15.0417C7.73168 15.042 7.55242 14.9776 7.40999 14.8596C7.24809 14.7254 7.14625 14.5322 7.12694 14.3228C7.10763 14.1134 7.17245 13.9049 7.30708 13.7433L10.8537 9.5L7.43374 5.24875C7.30092 5.08519 7.23878 4.87544 7.26107 4.66594C7.28336 4.45643 7.38824 4.26445 7.55249 4.1325C7.71808 3.9868 7.93695 3.91679 8.15635 3.93933C8.37576 3.96187 8.57582 4.07492 8.70833 4.25125L12.5321 9.00125C12.7722 9.29337 12.7722 9.71454 12.5321 10.0067L8.57374 14.7567C8.41267 14.951 8.16859 15.0568 7.91666 15.0417Z" fill="white"/>
</svg>
