<svg width="24" height="24" viewBox="0 0 24 24" fill="none" xmlns="http://www.w3.org/2000/svg">
<path fill-rule="evenodd" clip-rule="evenodd" d="M21.87 11.5C21.23 10.39 17.71 4.81999 11.73 4.99999C6.20001 5.13999 3.00001 9.99999 2.13001 11.5C1.95137 11.8094 1.95137 12.1906 2.13001 12.5C2.76001 13.59 6.13001 19 12.02 19H12.27C17.8 18.86 21.01 14 21.87 12.5C22.0486 12.1906 22.0486 11.8094 21.87 11.5ZM12 15.5C10.067 15.5 8.50001 13.933 8.50001 12C8.50001 10.067 10.067 8.49999 12 8.49999C13.933 8.49999 15.5 10.067 15.5 12C15.5 13.933 13.933 15.5 12 15.5ZM12 13.5C12.8284 13.5 13.5 12.8284 13.5 12C13.5 11.1716 12.8284 10.5 12 10.5C11.1716 10.5 10.5 11.1716 10.5 12C10.5 12.8284 11.1716 13.5 12 13.5Z" fill="#637381"/>
</svg>
