<svg width="144" height="39" viewBox="0 0 144 39" fill="none" xmlns="http://www.w3.org/2000/svg">
<g clip-path="url(#clip0_5_3977)">
<path d="M17.4268 12.4778C16.5635 11.6676 15.4845 11.0194 14.3514 10.5872C13.2184 10.1551 11.8696 9.88501 10.4129 9.88501C8.84826 9.88501 7.44549 10.1551 6.15062 10.6953C4.9097 11.2354 3.7767 11.9917 2.8595 12.964C1.9423 13.9363 1.24091 15.0706 0.701386 16.367C0.269764 17.7174 0 19.1219 0 20.6883C0 22.2008 0.269764 23.6592 0.755339 24.9556C1.24091 26.252 1.9423 27.3864 2.91345 28.3587C3.83065 29.331 4.96366 30.0872 6.31248 30.6274C7.60734 31.1676 9.11802 31.4376 10.7906 31.4376C12.0854 31.4376 13.2724 31.2756 14.3514 30.9515C15.4305 30.6274 16.3477 30.1953 17.157 29.6011C17.9663 29.0069 18.6137 28.3587 19.1532 27.6025C19.6388 26.9002 20.0704 26.09 20.2863 25.2797H14.6212C14.2975 25.9279 13.8119 26.4141 13.2184 26.7382C12.571 27.1163 11.7617 27.2784 10.7906 27.2784C9.27988 27.2784 8.09292 26.8462 7.22967 25.9279C6.36643 25.0097 5.88085 23.7673 5.66504 22.2008V22.0387H20.7179C20.7179 20.0942 20.4481 18.2576 19.9625 16.6371C19.423 15.0166 18.5598 13.6122 17.4268 12.4778ZM5.719 18.7978V18.6357C5.93481 17.1773 6.42038 16.0429 7.12177 15.1786C7.87711 14.3144 8.95616 13.8822 10.4129 13.8822C11.6538 13.8822 12.6789 14.3144 13.4342 15.1246C14.1896 15.9349 14.6212 17.1232 14.7291 18.5817V18.7437H5.719V18.7978Z" fill="white"/>
<path d="M52.6579 31.3837C54.0607 31.3837 55.2476 31.1136 56.1648 30.5734C57.136 30.0333 57.9992 29.115 58.7006 27.9266L58.7546 27.8726H59.0783V30.7895H64.5815V10.4792H58.8625V21.9848C58.8625 23.2812 58.4848 24.4155 57.7834 25.2258C57.082 26.09 56.0569 26.5222 54.7621 26.5222C53.6291 26.5222 52.7658 26.1981 52.2263 25.5499C51.6328 24.9017 51.363 23.9834 51.363 22.795V10.4792H45.5361V23.9834C45.5361 26.1981 46.1296 28.0346 47.3705 29.3851C48.5575 30.6815 50.3379 31.3837 52.6579 31.3837Z" fill="white"/>
<path d="M83.9506 11.9917C83.1413 11.3435 82.2241 10.8033 81.0911 10.4252C80.012 10.0471 78.7711 9.88501 77.4223 9.88501C75.8037 9.88501 74.347 10.1551 73.0521 10.6953C71.7572 11.2354 70.6242 11.9917 69.707 12.964C68.7898 13.9363 68.0885 15.0706 67.6029 16.367C67.1173 17.6634 66.8475 19.1219 66.8475 20.6343C66.8475 22.1468 67.1173 23.6052 67.6029 24.9016C68.0885 26.198 68.8438 27.3864 69.761 28.3047C70.6782 29.277 71.8112 30.0332 73.1061 30.5734C74.4009 31.1135 75.9116 31.3836 77.5302 31.3836C78.933 31.3836 80.2278 31.1676 81.3608 30.7354C82.4939 30.3033 83.519 29.7091 84.3283 29.0069C85.1375 28.2507 85.785 27.3864 86.2705 26.4141C86.7022 25.4418 86.9719 24.4155 87.0259 23.3351H81.4688C81.3069 24.4695 80.9292 25.3878 80.2818 26.036C79.5804 26.6842 78.6632 27.0623 77.4762 27.0623C75.9116 27.0623 74.6707 26.4681 73.9154 25.2797C73.16 24.0914 72.7284 22.5249 72.7284 20.6343C72.7284 18.6897 73.1061 17.0692 73.9154 15.9349C74.7246 14.7465 75.9116 14.1523 77.4762 14.1523C78.5013 14.1523 79.3646 14.4224 80.012 15.0166C80.6055 15.5568 81.0371 16.313 81.2529 17.2313H86.864C86.7022 16.205 86.3245 15.2327 85.8389 14.3684C85.4073 13.4501 84.7599 12.6399 83.9506 11.9917Z" fill="white"/>
<path d="M88.3747 27.8725C88.6984 28.6288 89.184 29.277 89.8315 29.7631C90.4249 30.2493 91.1803 30.6814 92.0435 30.8975C92.9068 31.1676 93.824 31.2756 94.7951 31.2756C96.3597 31.2756 97.6007 31.0055 98.5179 30.4653C99.4351 29.9252 100.244 29.1689 100.892 28.2507L100.946 28.1966H101.216V28.3047C101.269 28.8989 101.377 29.385 101.485 29.8171C101.593 30.1953 101.701 30.4653 101.863 30.7354H107.582V30.5734C107.042 30.1953 106.827 29.223 106.827 27.6565V17.1232C106.827 15.7728 106.557 14.5304 106.071 13.5041C105.586 12.4778 104.776 11.6676 103.751 11.0734C103.05 10.6412 102.187 10.3171 101.269 10.1551C100.352 9.93903 99.1653 9.88501 97.8704 9.88501C96.3597 9.88501 95.0649 10.0471 93.9319 10.4252C92.7989 10.8033 91.8817 11.2894 91.1263 11.9376C90.371 12.5318 89.8315 13.2881 89.4538 14.0983C89.0761 14.8545 88.9143 15.6648 88.8603 16.475H94.2016C94.3095 15.6648 94.6333 15.0166 95.2267 14.5304C95.8202 14.0443 96.7374 13.7742 97.9244 13.7742C99.0034 13.7742 99.8127 13.9903 100.352 14.4764C100.892 14.9626 101.108 15.6108 101.108 16.367C101.108 17.1773 100.676 17.8255 99.8127 18.2036C99.0034 18.5817 97.6546 18.9058 95.8202 19.1219C94.6872 19.2299 93.6082 19.446 92.637 19.662C91.6659 19.8781 90.8026 20.2562 90.1012 20.6883C89.3998 21.1205 88.8603 21.7146 88.4287 22.4709C87.9971 23.1731 87.8352 24.1454 87.8352 25.2257C87.8352 26.252 87.9971 27.1163 88.3747 27.8725ZM94.5253 22.957C95.1728 22.5249 96.1979 22.2008 97.5467 21.8767C98.2481 21.7147 98.8955 21.5526 99.489 21.3905C100.082 21.2285 100.622 21.0124 101.054 20.7424L101.269 20.6343V23.5512C101.269 24.7396 100.838 25.7119 100.029 26.4681C99.2192 27.2243 98.0862 27.6025 96.6835 27.6025C95.8202 27.6025 95.1188 27.3864 94.4714 27.0623C93.824 26.6842 93.5002 25.982 93.5002 25.0637C93.5002 24.0914 93.824 23.3892 94.5253 22.957Z" fill="white"/>
<path d="M127.167 33.8145H110.064V39H127.167V33.8145Z" fill="white"/>
<path d="M36.6878 27.8726L36.7418 27.8186H37.0655V30.7895H42.6227V0.162109H34.26V5.07762H36.7957V8.42665C36.7957 9.29092 36.7958 10.1552 36.8497 10.9654C36.8497 11.7757 36.9037 12.5319 36.9576 13.1801V13.3422H36.6878L36.6339 13.2881C35.9325 12.2078 35.1232 11.3976 34.1521 10.8034C33.1809 10.2092 31.994 9.93912 30.6451 9.93912C29.3503 9.93912 28.1094 10.2092 27.0303 10.7494C25.9512 11.2895 25.034 12.0458 24.2787 12.9641C23.5234 13.9363 22.9299 15.0707 22.4983 16.3671C22.0666 17.6635 21.8508 19.1219 21.8508 20.6884C21.8508 22.3629 22.0666 23.9294 22.4443 25.2258C22.8759 26.5762 23.4155 27.7106 24.2248 28.6289C24.9801 29.5472 25.8973 30.2494 26.9763 30.7355C28.0554 31.2217 29.2424 31.4918 30.5372 31.4918C31.886 31.4918 33.127 31.2217 34.206 30.6275C35.2851 30.0333 36.1483 29.115 36.6878 27.8726ZM32.2098 26.8463C30.753 26.8463 29.62 26.2521 28.9186 25.1178C28.2173 23.9834 27.8396 22.471 27.8396 20.5804C27.8396 18.6898 28.2173 17.1773 28.9186 15.989C29.674 14.8006 30.753 14.2064 32.2637 14.2064C33.073 14.2064 33.7744 14.3685 34.3679 14.6926C34.9614 15.0167 35.4469 15.4488 35.8786 16.043C36.2562 16.6372 36.5799 17.2854 36.7957 18.0956C37.0116 18.8519 37.0655 19.7161 37.0655 20.6344C37.0655 22.471 36.6339 23.9834 35.8246 25.1178C34.9074 26.2521 33.7204 26.8463 32.2098 26.8463Z" fill="white"/>
<path d="M138.119 27.8726L138.173 27.8186H138.497V30.7895H144.054V0.162109H135.691V5.07762H138.227V8.42665C138.227 9.29092 138.227 10.1552 138.281 10.9654C138.281 11.7757 138.335 12.5319 138.389 13.1801V13.3422H138.065L138.011 13.2881C137.31 12.2078 136.501 11.3976 135.529 10.8034C134.558 10.2092 133.371 9.93912 132.022 9.93912C130.728 9.93912 129.487 10.2092 128.408 10.7494C127.329 11.2895 126.411 12.0458 125.656 12.9641C124.901 13.9363 124.307 15.0707 123.876 16.3671C123.444 17.6635 123.228 19.1219 123.228 20.6884C123.228 22.3629 123.444 23.9294 123.822 25.2258C124.253 26.5762 124.793 27.7106 125.602 28.6289C126.357 29.5472 127.275 30.2494 128.354 30.7355C129.433 31.2217 130.62 31.4918 131.915 31.4918C133.263 31.4918 134.504 31.2217 135.583 30.6275C136.716 30.0333 137.526 29.115 138.119 27.8726ZM133.587 26.8463C132.13 26.8463 130.997 26.2521 130.296 25.1178C129.595 23.9834 129.217 22.471 129.217 20.5804C129.217 18.6898 129.595 17.1773 130.296 15.989C131.051 14.8006 132.13 14.2064 133.641 14.2064C134.45 14.2064 135.152 14.3685 135.745 14.6926C136.339 15.0167 136.824 15.4488 137.256 16.043C137.634 16.6372 137.957 17.2854 138.173 18.0956C138.389 18.8519 138.443 19.7161 138.443 20.6344C138.443 22.471 138.011 23.9834 137.202 25.1178C136.285 26.2521 135.098 26.8463 133.587 26.8463Z" fill="url(#paint0_linear_5_3977)"/>
<path d="M5.1255 3.02493H7.01385V4.59141C6.74409 4.80748 6.09665 5.23961 5.23341 5.23961C3.83063 5.23961 2.91344 4.2133 2.91344 2.75485C2.91344 1.56648 3.77668 0.270083 5.23341 0.270083C6.0427 0.270083 6.52827 0.594183 6.9599 0.918283H7.01385L7.22966 0.6482H7.17571C6.63618 0.270083 6.09665 0 5.23341 0C3.56087 0 2.53577 1.40443 2.53577 2.80886C2.53577 4.42936 3.61482 5.56371 5.23341 5.56371C6.25851 5.56371 7.01385 5.02355 7.33757 4.75346V2.70083H5.1255V3.02493Z" fill="white"/>
<path d="M12.7329 1.62044C12.7329 1.1883 12.571 0.864205 12.3552 0.594121C12.0315 0.270022 11.4919 0.0539551 10.7906 0.0539551H8.57849V5.45562H8.90221V3.24094H10.7366L12.4631 5.50963H12.8947L11.1143 3.18692C12.1394 3.07889 12.7329 2.4847 12.7329 1.62044ZM12.4091 1.62044C12.4091 2.37667 11.7617 2.86282 10.7366 2.86282H8.90221V0.432072H10.7906C11.8157 0.432072 12.4091 0.864205 12.4091 1.62044Z" fill="white"/>
<path d="M17.8583 3.13296C17.8583 4.48338 17.2109 5.23961 16.024 5.23961C14.837 5.23961 14.1356 4.42936 14.1356 3.13296V0.108032H13.8119V3.18698C13.8119 4.69944 14.6212 5.61773 16.024 5.61773C17.3728 5.61773 18.236 4.69944 18.236 3.18698V0.108032H17.9123V3.13296H17.8583Z" fill="white"/>
<path d="M21.4192 0.108032H19.4769V5.5097H19.8006V3.45706H21.3113C22.6062 3.45706 23.4155 2.80886 23.4155 1.78255C23.4694 0.702215 22.7141 0.108032 21.4192 0.108032ZM19.8006 3.13296V0.432132H21.3653C22.4443 0.432132 23.0918 0.918282 23.0918 1.78255C23.0918 2.5928 22.3904 3.13296 21.3113 3.13296H19.8006Z" fill="white"/>
<path d="M26.8684 0C25.3577 0 24.1708 1.18837 24.1708 2.80886C24.1708 4.37535 25.3038 5.61773 26.8684 5.61773C28.3791 5.61773 29.5661 4.42936 29.5661 2.80886C29.5661 1.18837 28.3791 0 26.8684 0ZM29.1884 2.80886C29.1884 4.2133 28.1633 5.29363 26.8684 5.29363C25.5735 5.29363 24.4945 4.2133 24.4945 2.80886C24.4945 1.40443 25.5196 0.3241 26.8145 0.3241C28.1633 0.3241 29.1884 1.40443 29.1884 2.80886Z" fill="white"/>
</g>
<defs>
<linearGradient id="paint0_linear_5_3977" x1="133.638" y1="-0.205906" x2="133.638" y2="30.9552" gradientUnits="userSpaceOnUse">
<stop offset="0.3235" stop-color="#C7232E"/>
<stop offset="1" stop-color="#661318"/>
</linearGradient>
<clipPath id="clip0_5_3977">
<rect width="144" height="39" fill="white"/>
</clipPath>
</defs>
</svg>
