<svg width="230" height="62" viewBox="0 0 230 62" fill="none" xmlns="http://www.w3.org/2000/svg">
<g clip-path="url(#clip0_5_1473)">
<path d="M27.8344 19.8366C26.4556 18.5485 24.7321 17.518 22.9224 16.8311C21.1128 16.1441 18.9584 15.7147 16.6317 15.7147C14.1326 15.7147 11.8921 16.1441 9.8239 17.0028C7.84189 17.8615 6.03222 19.0638 4.56725 20.6095C3.10229 22.1552 1.98202 23.9585 1.12027 26.0194C0.430873 28.1662 0 30.3989 0 32.8892C0 35.2937 0.430873 37.6122 1.20644 39.6732C1.98202 41.7341 3.10229 43.5374 4.65343 45.0831C6.1184 46.6289 7.92806 47.8311 10.0824 48.6898C12.1506 49.5485 14.5635 49.9779 17.2349 49.9779C19.3031 49.9779 21.199 49.7203 22.9224 49.205C24.6459 48.6898 26.1109 48.0028 27.4035 47.0582C28.6961 46.1136 29.7302 45.0831 30.592 43.8809C31.3676 42.7646 32.0569 41.4765 32.4016 40.1884H23.3533C22.8363 41.2189 22.0607 41.9917 21.1128 42.507C20.0787 43.1081 18.7861 43.3657 17.2349 43.3657C14.822 43.3657 12.9262 42.6787 11.5474 41.2189C10.1686 39.759 9.39303 37.784 9.04833 35.2937V35.0361H33.091C33.091 31.9446 32.6602 29.025 31.8846 26.4488C31.0229 23.8726 29.6441 21.6399 27.8344 19.8366ZM9.13451 29.8837V29.6261C9.47921 27.3075 10.2548 25.5042 11.375 24.1302C12.5815 22.7563 14.305 22.0693 16.6317 22.0693C18.6137 22.0693 20.251 22.7563 21.4575 24.0444C22.6639 25.3325 23.3533 27.2216 23.5257 29.5402V29.7978H9.13451V29.8837Z" fill="#040505"/>
<path d="M84.1064 49.892C86.347 49.892 88.2428 49.4626 89.7078 48.6039C91.2589 47.7452 92.6377 46.2853 93.758 44.3961L93.8442 44.3103H94.3612V48.9474H103.151V16.6593H94.0165V34.9502C94.0165 37.0111 93.4133 38.8144 92.293 40.1025C91.1727 41.4765 89.5354 42.1635 87.4672 42.1635C85.6576 42.1635 84.2788 41.6482 83.417 40.6177C82.4691 39.5873 82.0382 38.1274 82.0382 36.2382V16.6593H72.7314V38.1274C72.7314 41.6482 73.6793 44.5679 75.6613 46.7147C77.5572 48.7756 80.4009 49.892 84.1064 49.892Z" fill="#040505"/>
<path d="M134.088 19.0638C132.795 18.0333 131.33 17.1746 129.52 16.5734C127.797 15.9723 125.815 15.7147 123.661 15.7147C121.075 15.7147 118.749 16.1441 116.68 17.0028C114.612 17.8615 112.803 19.0638 111.338 20.6095C109.873 22.1552 108.752 23.9585 107.977 26.0194C107.201 28.0804 106.77 30.3989 106.77 32.8034C106.77 35.2078 107.201 37.5264 107.977 39.5873C108.752 41.6482 109.959 43.5374 111.424 44.9973C112.889 46.543 114.698 47.7452 116.767 48.6039C118.835 49.4626 121.248 49.892 123.833 49.892C126.073 49.892 128.142 49.5485 129.951 48.8615C131.761 48.1746 133.398 47.23 134.691 46.1136C135.984 44.9114 137.018 43.5374 137.793 41.9917C138.483 40.446 138.913 38.8144 139 37.097H130.124C129.865 38.9003 129.262 40.3602 128.228 41.3906C127.108 42.4211 125.643 43.0222 123.747 43.0222C121.248 43.0222 119.266 42.0776 118.059 40.1884C116.853 38.2992 116.163 35.8089 116.163 32.8034C116.163 29.712 116.767 27.1358 118.059 25.3325C119.352 23.4433 121.248 22.4987 123.747 22.4987C125.384 22.4987 126.763 22.928 127.797 23.8726C128.745 24.7313 129.434 25.9336 129.779 27.3934H138.741C138.483 25.7618 137.879 24.2161 137.104 22.8421C136.414 21.3823 135.38 20.0942 134.088 19.0638Z" fill="#040505"/>
<path d="M141.154 44.3103C141.671 45.5125 142.447 46.543 143.481 47.3158C144.429 48.0887 145.635 48.7757 147.014 49.1192C148.393 49.5485 149.858 49.7203 151.409 49.7203C153.908 49.7203 155.89 49.2909 157.355 48.4322C158.82 47.5734 160.112 46.3712 161.146 44.9114L161.233 44.8255H161.664V44.9973C161.75 45.9419 161.922 46.7147 162.094 47.4017C162.267 48.0028 162.439 48.4322 162.698 48.8615H171.832V48.6039C170.97 48.0028 170.626 46.4571 170.626 43.9668V27.2216C170.626 25.0748 170.195 23.0998 169.419 21.4682C168.644 19.8366 167.351 18.5485 165.714 17.6039C164.593 16.9169 163.215 16.4017 161.75 16.1441C160.285 15.8006 158.389 15.7147 156.321 15.7147C153.908 15.7147 151.84 15.9723 150.03 16.5734C148.22 17.1746 146.755 17.9474 145.549 18.9779C144.342 19.9225 143.481 21.1247 142.877 22.4128C142.274 23.615 142.016 24.9031 141.93 26.1912H150.461C150.633 24.9031 151.15 23.8726 152.098 23.0998C153.046 22.3269 154.511 21.8975 156.407 21.8975C158.13 21.8975 159.423 22.241 160.285 23.0139C161.146 23.7867 161.491 24.8172 161.491 26.0194C161.491 27.3075 160.802 28.338 159.423 28.9391C158.13 29.5402 155.976 30.0554 153.046 30.3989C151.236 30.5707 149.513 30.9142 147.962 31.2577C146.411 31.6011 145.032 32.2023 143.912 32.8892C142.791 33.5762 141.93 34.5208 141.24 35.723C140.551 36.8394 140.292 38.3851 140.292 40.1025C140.292 41.7341 140.551 43.1081 141.154 44.3103ZM150.978 36.4959C152.012 35.8089 153.649 35.2937 155.804 34.7784C156.924 34.5208 157.958 34.2632 158.906 34.0056C159.854 33.748 160.716 33.4045 161.405 32.9751L161.75 32.8034V37.4405C161.75 39.3297 161.06 40.8754 159.768 42.0776C158.475 43.2798 156.665 43.8809 154.425 43.8809C153.046 43.8809 151.926 43.5374 150.892 43.0222C149.858 42.4211 149.341 41.3047 149.341 39.8449C149.341 38.2992 149.858 37.1829 150.978 36.4959Z" fill="#040505"/>
<path d="M203.114 53.7562H175.796V62H203.114V53.7562Z" fill="#040505"/>
<path d="M58.5987 44.3103L58.6849 44.2245H59.2019V48.9474H68.0779V0.25769H54.7209V8.07209H58.7711V13.3962C58.7711 14.7702 58.7711 16.1441 58.8572 17.4322C58.8572 18.7203 58.9434 19.9225 59.0296 20.953V21.2106H58.5987L58.5125 21.1247C57.3923 19.4073 56.0996 18.1192 54.5485 17.1746C52.9974 16.23 51.1015 15.8006 48.9472 15.8006C46.879 15.8006 44.8969 16.23 43.1735 17.0887C41.45 17.9474 39.985 19.1497 38.7786 20.6095C37.5721 22.1552 36.6242 23.9585 35.9348 26.0195C35.2454 28.0804 34.9007 30.399 34.9007 32.8893C34.9007 35.5513 35.2454 38.0416 35.8486 40.1026C36.538 42.2494 37.3998 44.0527 38.6924 45.5125C39.8988 46.9724 41.3638 48.0887 43.0873 48.8616C44.8108 49.6344 46.7066 50.0638 48.7748 50.0638C50.9292 50.0638 52.9112 49.6344 54.6347 48.6898C56.3582 47.7452 57.737 46.2854 58.5987 44.3103ZM51.4462 42.6787C49.1195 42.6787 47.3098 41.7341 46.1896 39.9308C45.0693 38.1275 44.4661 35.7231 44.4661 32.7175C44.4661 29.712 45.0693 27.3076 46.1896 25.4184C47.396 23.5292 49.1195 22.5846 51.5324 22.5846C52.825 22.5846 53.9453 22.8422 54.8932 23.3574C55.8411 23.8727 56.6167 24.5596 57.3061 25.5042C57.9093 26.4488 58.4264 27.4793 58.7711 28.7674C59.1158 29.9696 59.2019 31.3436 59.2019 32.8034C59.2019 35.7231 58.5125 38.1275 57.2199 39.9308C55.7549 41.7341 53.8591 42.6787 51.4462 42.6787Z" fill="#040505"/>
<path d="M220.607 44.3103L220.693 44.2245H221.21V48.9474H230.086V0.25769H216.729V8.07209H220.779V13.3962C220.779 14.7702 220.779 16.1441 220.865 17.4322C220.865 18.7203 220.952 19.9225 221.038 20.953V21.2106H220.521L220.435 21.1247C219.314 19.4073 218.022 18.1192 216.471 17.1746C214.919 16.23 213.024 15.8006 210.869 15.8006C208.801 15.8006 206.819 16.23 205.096 17.0887C203.372 17.9474 201.907 19.1497 200.701 20.6095C199.494 22.1552 198.546 23.9585 197.857 26.0195C197.167 28.0804 196.823 30.399 196.823 32.8893C196.823 35.5513 197.167 38.0416 197.771 40.1026C198.46 42.2494 199.322 44.0527 200.614 45.5125C201.821 46.9724 203.286 48.0887 205.009 48.8616C206.733 49.6344 208.629 50.0638 210.697 50.0638C212.851 50.0638 214.833 49.6344 216.557 48.6898C218.366 47.7452 219.659 46.2854 220.607 44.3103ZM213.368 42.6787C211.042 42.6787 209.232 41.7341 208.112 39.9308C206.991 38.1275 206.388 35.7231 206.388 32.7175C206.388 29.712 206.991 27.3076 208.112 25.4184C209.318 23.5292 211.042 22.5846 213.454 22.5846C214.747 22.5846 215.867 22.8422 216.815 23.3574C217.763 23.8727 218.539 24.5596 219.228 25.5042C219.831 26.4488 220.348 27.4793 220.693 28.7674C221.038 29.9696 221.124 31.3436 221.124 32.8034C221.124 35.7231 220.435 38.1275 219.142 39.9308C217.677 41.7341 215.781 42.6787 213.368 42.6787Z" fill="url(#paint0_linear_5_1473)"/>
<path d="M8.18661 4.80886H11.2027V7.29917C10.7719 7.64266 9.73776 8.32964 8.35896 8.32964C6.11842 8.32964 4.65345 6.69806 4.65345 4.3795C4.65345 2.4903 6.03225 0.429363 8.35896 0.429363C9.65158 0.429363 10.4272 0.944598 11.1165 1.45983H11.2027L11.5474 1.03047H11.4612C10.5995 0.429363 9.73776 0 8.35896 0C5.68755 0 4.05023 2.23269 4.05023 4.46537C4.05023 7.04155 5.77372 8.84488 8.35896 8.84488C9.99628 8.84488 11.2027 7.98615 11.7198 7.55679V4.29363H8.18661V4.80886Z" fill="#040505"/>
<path d="M20.3372 2.57612C20.3372 1.88914 20.0787 1.3739 19.734 0.944541C19.217 0.429306 18.3552 0.0858154 17.2349 0.0858154H13.7018V8.67307H14.2188V5.1523H17.1488L19.9064 8.75895H20.5958L17.752 5.06643C19.3893 4.89468 20.3372 3.95008 20.3372 2.57612ZM19.8202 2.57612C19.8202 3.77834 18.7861 4.55119 17.1488 4.55119H14.2188V0.686924H17.2349C18.8723 0.686924 19.8202 1.3739 19.8202 2.57612Z" fill="#040505"/>
<path d="M28.5238 4.98062C28.5238 7.12743 27.4897 8.32965 25.5939 8.32965C23.698 8.32965 22.5778 7.04156 22.5778 4.98062V0.171753H22.0607V5.06649C22.0607 7.47092 23.3533 8.93075 25.5939 8.93075C27.7483 8.93075 29.127 7.47092 29.127 5.06649V0.171753H28.61V4.98062H28.5238Z" fill="#040505"/>
<path d="M34.2114 0.171753H31.1091V8.75901H31.6261V5.49585H34.039C36.1072 5.49585 37.3998 4.46538 37.3998 2.8338C37.486 1.11635 36.2795 0.171753 34.2114 0.171753ZM31.6261 4.98062V0.686988H34.1252C35.8487 0.686988 36.8828 1.45984 36.8828 2.8338C36.8828 4.12189 35.7625 4.98062 34.039 4.98062H31.6261Z" fill="#040505"/>
<path d="M42.915 0C40.5021 0 38.6063 1.8892 38.6063 4.46537C38.6063 6.95568 40.4159 8.93075 42.915 8.93075C45.3279 8.93075 47.2237 7.04155 47.2237 4.46537C47.2237 1.8892 45.3279 0 42.915 0ZM46.6205 4.46537C46.6205 6.69806 44.9832 8.41551 42.915 8.41551C40.8468 8.41551 39.1233 6.69806 39.1233 4.46537C39.1233 2.23269 40.7606 0.515235 42.8288 0.515235C44.9832 0.515235 46.6205 2.23269 46.6205 4.46537Z" fill="#040505"/>
</g>
<defs>
<linearGradient id="paint0_linear_5_1473" x1="213.45" y1="-0.327359" x2="213.45" y2="49.2108" gradientUnits="userSpaceOnUse">
<stop offset="0.3235" stop-color="#C7232E"/>
<stop offset="1" stop-color="#661318"/>
</linearGradient>
<clipPath id="clip0_5_1473">
<rect width="230" height="62" fill="white"/>
</clipPath>
</defs>
</svg>
