<svg width="146" height="37" viewBox="0 0 146 37" fill="none" xmlns="http://www.w3.org/2000/svg">
<path d="M121.19 9.92395H113.579H112.191L117.49 18.0818L112.191 26.2396H113.579H121.19L126.488 18.0818L121.19 9.92395Z" fill="#F2233A"/>
<path d="M135.403 1.80817H122.746L133.301 18.1659L122.746 34.5236H135.403L146 18.1659L135.403 1.80817Z" fill="#F2233A"/>
<path d="M6.3917 23.6745C11.3957 29.4355 19.091 29.6457 19.091 25.3566C19.091 22.7915 16.61 21.9925 14.087 21.1936C7.40092 19.1331 2.77534 17.0305 2.77534 10.4286C2.77534 4.12097 8.45218 0 14.97 0C20.8571 0 24.053 1.26152 28.6786 4.07892L24.053 11.3537C17.3669 6.5599 12.8255 6.98042 12.3209 10.6388C11.9003 13.2039 15.6849 13.6665 19.6377 15.0121C24.5156 16.4418 29.057 19.7218 29.057 25.6089C29.057 31.1175 23.3802 36.3738 16.3577 36.3738C10.1342 36.3738 4.24712 34.3975 0 30.1503L6.3917 23.6745Z" fill="white"/>
<path d="M44.2373 1.00922H33.9349V35.4067H44.2373V1.00922Z" fill="white"/>
<path d="M55.4649 23.6745C60.4689 29.4355 68.1642 29.6457 68.1642 25.3566C68.1642 22.7915 65.6832 21.9925 63.1601 21.1936C56.4741 19.1331 51.8485 17.0305 51.8485 10.4286C51.8485 4.12097 57.5253 0 64.0432 0C69.9303 0 73.1261 1.26152 77.7517 4.07892L73.1261 11.3537C66.4401 6.5599 61.8986 6.98042 61.394 10.6388C61.0155 13.2039 64.7581 13.6665 68.7529 15.0121C73.6307 16.4418 78.1722 19.7218 78.1722 25.6089C78.1722 31.1175 72.4954 36.3738 65.4729 36.3738C59.2494 36.3738 53.3623 34.3975 49.1152 30.1503L55.4649 23.6745Z" fill="white"/>
<path d="M93.8151 27.5012V21.9925H105.926V14.4234H93.8151V9.12499H105.085V0.92511H83.807V35.659H107.103V27.5012H93.8151Z" fill="white"/>
</svg>
