<svg width="27" height="32" viewBox="0 0 27 32" fill="none" xmlns="http://www.w3.org/2000/svg">
<path d="M16.4613 26.3643C16.0258 26.4514 15.5903 26.4514 15.1548 26.4514C9.49355 26.4514 5.4 21.7481 5.4 15.9998V15.9127C5.4 10.1643 9.49355 5.54814 15.1548 5.54814C18.5516 5.54814 21.0774 7.02878 23.429 9.2062L26.7387 5.37394C23.8645 2.67394 20.6419 0.757812 15.1548 0.757812C6.27097 0.757812 0 7.63846 0 15.9998V16.0869C0 24.5352 6.35807 31.2417 14.9807 31.2417C17.071 31.2417 18.9 30.9804 20.4678 30.3707L16.4613 26.3643Z" fill="white"/>
<path d="M23.6032 22.6185C22.3838 23.7507 21.1645 24.7088 19.858 25.4056L23.429 28.9765C24.7355 28.1927 25.8677 27.1475 27 26.0152L23.6032 22.6185Z" fill="#F28B2D"/>
</svg>
