<svg width="175" height="44" viewBox="0 0 175 44" fill="none" xmlns="http://www.w3.org/2000/svg">
<g clip-path="url(#clip0_132_4318)">
<path d="M6.0722 12.8866C4.1305 13.9547 2.64775 15.3674 1.58864 17.0902C0.529529 18.8474 0.0352783 20.8459 0.0352783 23.0855C0.0352783 26.5655 1.16499 29.4254 3.45973 31.6305C5.75446 33.8702 8.68466 34.9727 12.2856 34.9727C14.2273 34.9727 15.9572 34.6626 17.4753 34.0424C18.9933 33.4222 20.6173 32.2852 22.3119 30.6658L19.311 27.6337C18.0401 28.8741 16.8751 29.701 15.816 30.1834C14.7569 30.6658 13.5919 30.8725 12.3209 30.8725C10.8382 30.8725 9.46134 30.5279 8.22571 29.8733C6.99009 29.2186 6.03689 28.2883 5.36612 27.1168C4.69535 25.9453 4.37762 24.6016 4.37762 23.12C4.37762 20.9492 5.119 19.1575 6.63705 17.6759C8.15511 16.1943 10.0262 15.4708 12.215 15.4708C14.8275 15.4708 17.1928 16.5389 19.2757 18.7096L22.3472 15.8498C21.0762 14.4026 19.5582 13.2656 17.793 12.5076C16.0278 11.7151 14.192 11.3361 12.2856 11.3361C10.1321 11.3016 8.0492 11.8185 6.0722 12.8866Z" fill="white"/>
<path d="M30.361 11.8528H25.9834V34.4213H30.361V11.8528Z" fill="white"/>
<path d="M34.421 11.8528V34.4213H49.3898V30.2177H38.7987V24.2569H49.3898V20.1566H38.7987V16.0564H49.3898V11.8528H34.421Z" fill="white"/>
<path d="M103.934 11.8528V34.4213H108.312V24.2569H115.372V20.1566H108.312V16.0564H118.867V11.8528H103.934Z" fill="white"/>
<path d="M67.1828 11.8528V26.7032L57.2978 11.8528H53.0613V34.4213H57.4743V19.6053L67.3593 34.4213H71.5957V11.8528H67.1828Z" fill="white"/>
<path d="M74.5965 11.8528V16.0908H81.3748V34.4213H85.823V16.0908H92.7072V11.8528H74.5965Z" fill="white"/>
<path d="M126.316 11.8528H121.939V34.4213H126.316V11.8528Z" fill="white"/>
<path d="M134.966 12.8866C133.024 13.9547 131.541 15.3674 130.482 17.0902C129.423 18.8474 128.929 20.8459 128.929 23.0855C128.929 26.5655 130.059 29.4254 132.353 31.6305C134.648 33.8702 137.578 34.9727 141.179 34.9727C143.121 34.9727 144.851 34.6626 146.369 34.0424C147.887 33.4222 149.511 32.2852 151.205 30.6658L148.205 27.6337C146.934 28.8741 145.769 29.701 144.71 30.1834C143.65 30.6658 142.485 30.8725 141.214 30.8725C139.732 30.8725 138.355 30.5279 137.119 29.8733C135.884 29.2186 134.93 28.2883 134.26 27.1168C133.589 25.9453 133.271 24.6016 133.271 23.12C133.271 20.9492 134.013 19.1575 135.531 17.6759C137.049 16.1943 138.92 15.4708 141.109 15.4708C143.721 15.4708 146.086 16.5389 148.169 18.7096L151.241 15.8498C149.97 14.4026 148.452 13.2656 146.687 12.5076C144.921 11.7151 143.086 11.3361 141.179 11.3361C139.026 11.3016 136.907 11.8185 134.966 12.8866Z" fill="white"/>
<path d="M151.241 34.4214H155.512L157.489 30.6312L159.396 26.91L162.82 20.2601L166.915 28.3227H171.258L162.82 11.7839L151.241 34.4214Z" fill="white"/>
<path d="M95.8846 11.8528V14.7126L100.227 11.8528H95.8846Z" fill="white"/>
<path d="M95.8846 17.2968V34.4213H100.227V14.4714L95.8846 17.2968Z" fill="white"/>
<path d="M174.4 34.4212H170.093L168.186 30.6655H172.458L174.4 34.4212Z" fill="#F28C35"/>
<path d="M3.31854 7.99364C2.82429 7.99364 2.36534 7.92473 1.977 7.78691C1.55336 7.64908 1.23563 7.44235 0.917894 7.13225C0.635465 6.8566 0.38834 6.47759 0.247125 6.06412C0.0706072 5.65065 0 5.16827 0 4.61698V0.103271H0.88259V4.54806C0.88259 5.375 1.09441 6.02966 1.51806 6.47759C1.9417 6.92551 2.54186 7.1667 3.31854 7.1667C4.05992 7.1667 4.62477 6.95997 5.08372 6.51204C5.50736 6.09857 5.71919 5.44391 5.71919 4.58252V0.103271H6.60178V4.54806C6.60178 5.13381 6.53117 5.61619 6.35465 6.02966C6.17813 6.44313 5.96631 6.82214 5.68388 7.09779C5.40145 7.37344 5.04842 7.61463 4.62477 7.75245C4.27174 7.92473 3.81279 7.99364 3.31854 7.99364Z" fill="white"/>
<path d="M9.88504 0.103271H10.7323L15.7454 6.33976V0.103271H16.628V7.89027H15.922L10.7676 1.51596V7.89027H9.88504V0.103271Z" fill="white"/>
<path d="M20.9704 0.103271H20.0878V7.85582H20.9704V0.103271Z" fill="white"/>
<path d="M23.7593 0.103271H24.7831L27.6074 6.78769L30.4317 0.103271H31.4202L27.9958 7.92473H27.1838L23.7593 0.103271Z" fill="white"/>
<path d="M34.1032 0.103271H39.8577V0.895754H35.0211V3.5833H39.3635V4.37579H35.0211V7.09779H39.9283V7.89027H34.1032V0.103271Z" fill="white"/>
<path d="M42.8586 0.103271H46.2831C46.7773 0.103271 47.201 0.172183 47.5893 0.310006C47.9776 0.447829 48.2954 0.620108 48.5425 0.895754C48.7543 1.10249 48.8955 1.30922 49.0014 1.58487C49.1074 1.86052 49.178 2.13616 49.178 2.44626V2.48072C49.178 2.79082 49.1074 3.10092 49.0014 3.34211C48.8955 3.5833 48.7543 3.82449 48.5425 3.99677C48.366 4.16905 48.1189 4.34133 47.8717 4.47915C47.5893 4.61698 47.3069 4.68589 47.0244 4.7548L49.4604 7.92473H48.366L46.0712 4.89262H46.0359H43.7765V7.92473H42.8939V0.103271H42.8586ZM46.2125 4.06568C46.4949 4.06568 46.7773 4.03123 47.0244 3.96232C47.2716 3.8934 47.4834 3.79004 47.6599 3.65221C47.8364 3.51439 47.9776 3.34211 48.0835 3.16983C48.1895 2.9631 48.2248 2.75636 48.2248 2.51517V2.44626C48.2248 1.96388 48.0482 1.58487 47.6952 1.30922C47.3422 1.03358 46.8479 0.895754 46.1772 0.895754H43.7059V4.03123H46.2125V4.06568Z" fill="white"/>
<path d="M54.9677 7.99374C54.3323 7.99374 53.7321 7.89037 53.2378 7.68363C52.7083 7.4769 52.214 7.1668 51.7198 6.75333L52.2846 6.09867C52.7083 6.47768 53.1319 6.75333 53.5556 6.92561C53.9792 7.09789 54.4735 7.20125 55.0383 7.20125C55.5679 7.20125 55.9915 7.06343 56.3446 6.82224C56.6623 6.58105 56.8388 6.27095 56.8388 5.85748C56.8388 5.6852 56.8035 5.51292 56.7329 5.3751C56.6623 5.23728 56.5564 5.09945 56.4152 4.99608C56.274 4.89272 56.0621 4.75489 55.7797 4.68598C55.4973 4.58262 55.1795 4.5137 54.7559 4.41034C54.297 4.30697 53.9086 4.2036 53.5556 4.06578C53.2025 3.92796 52.9554 3.79013 52.7083 3.61785C52.4965 3.44558 52.3199 3.23884 52.214 2.99765C52.1081 2.75646 52.0375 2.48081 52.0375 2.17071V2.1018C52.0375 1.7917 52.1081 1.51605 52.2493 1.27486C52.3906 0.999217 52.5671 0.792482 52.7789 0.620204C53.026 0.447925 53.2731 0.275646 53.6262 0.172279C53.9439 0.0689115 54.297 0 54.6853 0C55.2855 0 55.7797 0.0689115 56.2033 0.24119C56.627 0.413469 57.0506 0.654659 57.4743 0.964761L56.9447 1.65388C56.5564 1.34377 56.2034 1.13704 55.815 0.999217C55.4267 0.861394 55.0383 0.792482 54.65 0.792482C54.1204 0.792482 53.6968 0.89585 53.4144 1.13704C53.0966 1.37823 52.9554 1.68833 52.9554 2.03289V2.06735C52.9554 2.23962 52.9907 2.4119 53.0613 2.54973C53.1319 2.68755 53.2378 2.82537 53.3791 2.9632C53.5556 3.10102 53.7674 3.20439 54.0498 3.30775C54.3323 3.41112 54.6853 3.51449 55.1442 3.5834C56.0268 3.79013 56.6976 4.03132 57.1212 4.37588C57.5449 4.72044 57.7567 5.16836 57.7567 5.78857V5.82302C57.7567 6.16758 57.6861 6.44323 57.5449 6.71887C57.4037 6.99452 57.2272 7.23571 56.98 7.40799C56.7329 7.61472 56.4505 7.75254 56.1327 7.85591C55.7091 7.92482 55.3561 7.99374 54.9677 7.99374Z" fill="white"/>
<path d="M61.6048 0.103271H60.7222V7.85582H61.6048V0.103271Z" fill="white"/>
<path d="M65.0999 0.103271H67.8536C68.4891 0.103271 69.0539 0.206639 69.5482 0.413373C70.0777 0.620108 70.5014 0.895754 70.8897 1.24031C71.278 1.58487 71.5605 1.99834 71.7723 2.48072C71.9841 2.9631 72.09 3.44548 72.09 3.99677V4.03123C72.09 4.58252 71.9841 5.09936 71.7723 5.54728C71.5605 6.02966 71.278 6.44313 70.8897 6.78769C70.5014 7.13225 70.0777 7.40789 69.5482 7.61463C69.0186 7.82136 68.4538 7.92473 67.8536 7.92473H65.0999V0.103271ZM67.8536 7.06333C68.3478 7.06333 68.8068 6.99442 69.2304 6.82214C69.6541 6.64987 69.9718 6.44313 70.2542 6.16749C70.5367 5.89184 70.7485 5.58174 70.925 5.20272C71.0662 4.82371 71.1721 4.4447 71.1721 3.99677V3.96232C71.1721 3.54885 71.1015 3.13538 70.925 2.75636C70.7838 2.37735 70.5367 2.06725 70.2542 1.7916C69.9718 1.51596 69.6188 1.30922 69.2304 1.13694C68.8068 0.964665 68.3831 0.895754 67.8536 0.895754H65.9825V7.02888H67.8536V7.06333Z" fill="white"/>
<path d="M78.0563 0.0688477H78.9035L82.5398 7.8903H81.5513L80.6334 5.82296H76.2911L75.3379 7.8903H74.42L78.0563 0.0688477ZM80.2804 5.03048L78.4799 1.06806L76.6441 5.03048H80.2804Z" fill="white"/>
<path d="M85.223 0.103271H87.9766C88.6121 0.103271 89.177 0.206639 89.6712 0.413373C90.2008 0.620108 90.6244 0.895754 91.0128 1.24031C91.4011 1.58487 91.6835 1.99834 91.8953 2.48072C92.1072 2.9631 92.2131 3.44548 92.2131 3.99677V4.03123C92.2131 4.58252 92.1072 5.09936 91.8953 5.54728C91.6835 6.02966 91.4011 6.44313 91.0128 6.78769C90.6244 7.13225 90.2008 7.40789 89.6712 7.61463C89.1417 7.82136 88.5768 7.92473 87.9766 7.92473H85.223V0.103271ZM88.012 7.06333C88.5062 7.06333 88.9651 6.99442 89.3888 6.82214C89.8124 6.64987 90.1302 6.44313 90.4126 6.16749C90.695 5.89184 90.9069 5.58174 91.0834 5.20272C91.2246 4.82371 91.3305 4.4447 91.3305 3.99677V3.96232C91.3305 3.54885 91.2599 3.13538 91.0834 2.75636C90.9422 2.37735 90.695 2.06725 90.4126 1.7916C90.1302 1.51596 89.7771 1.30922 89.3888 1.13694C88.9651 0.964665 88.5415 0.895754 88.012 0.895754H86.1409V7.02888H88.012V7.06333Z" fill="white"/>
<path d="M143.721 39.5896H145.274C145.627 39.5896 145.945 39.6585 146.228 39.7619C146.51 39.8652 146.757 40.0375 146.969 40.2098C147.181 40.4165 147.322 40.6233 147.463 40.8989C147.569 41.1746 147.64 41.4502 147.64 41.7603C147.64 42.0704 147.569 42.3461 147.463 42.6217C147.357 42.8973 147.181 43.1041 146.969 43.3108C146.757 43.5176 146.51 43.6554 146.228 43.7587C145.945 43.8621 145.627 43.931 145.274 43.931H143.721V39.5896ZM145.239 43.4831C145.521 43.4831 145.769 43.4486 145.98 43.3453C146.192 43.2419 146.404 43.1385 146.545 43.0007C146.686 42.8629 146.828 42.6562 146.898 42.4494C146.969 42.2427 147.04 42.0015 147.04 41.7948C147.04 41.5536 147.004 41.3468 146.898 41.1401C146.828 40.9334 146.686 40.7611 146.545 40.5888C146.404 40.451 146.192 40.3132 145.98 40.2098C145.769 40.1064 145.486 40.072 145.239 40.072H144.215V43.4831H145.239Z" fill="#F28C35"/>
<path d="M149.299 39.5896H152.476V40.0375H149.793V41.5191H152.194V41.967H149.793V43.4831H152.512V43.931H149.299V39.5896Z" fill="#F28C35"/>
<path d="M154.171 39.5896H154.665V43.4831H157.136V43.931H154.171V39.5896Z" fill="#F28C35"/>
<path d="M162.75 43.9655C162.397 43.9655 162.079 43.8966 161.761 43.7932C161.479 43.6898 161.196 43.5176 160.914 43.2764L161.232 42.9318C161.479 43.1385 161.691 43.2764 161.938 43.3797C162.185 43.4831 162.432 43.5176 162.75 43.5176C163.032 43.5176 163.279 43.4486 163.456 43.3108C163.632 43.173 163.738 43.0007 163.738 42.794C163.738 42.6906 163.738 42.6217 163.703 42.5183C163.667 42.4494 163.597 42.3805 163.526 42.3116C163.456 42.2427 163.314 42.1738 163.173 42.1393C163.032 42.0704 162.82 42.036 162.608 42.0015C162.361 41.9326 162.149 41.8981 161.938 41.8292C161.761 41.7603 161.585 41.6914 161.479 41.588C161.373 41.4847 161.267 41.3813 161.196 41.2435C161.126 41.1057 161.09 40.9678 161.09 40.7956C161.09 40.6233 161.126 40.4854 161.196 40.3132C161.267 40.1753 161.373 40.0375 161.514 39.9342C161.655 39.8308 161.796 39.7619 161.973 39.693C162.149 39.6241 162.361 39.5896 162.573 39.5896C162.891 39.5896 163.173 39.6241 163.42 39.7274C163.667 39.8308 163.915 39.9342 164.126 40.1409L163.844 40.5199C163.632 40.3476 163.42 40.2443 163.209 40.1753C162.997 40.1064 162.785 40.072 162.538 40.072C162.255 40.072 162.008 40.1409 161.832 40.2787C161.655 40.4165 161.585 40.5888 161.585 40.7611C161.585 40.8645 161.585 40.9678 161.62 41.0367C161.655 41.1057 161.726 41.1746 161.796 41.2435C161.867 41.3124 162.008 41.3813 162.149 41.4158C162.291 41.4847 162.502 41.5191 162.75 41.588C163.244 41.6914 163.597 41.8292 163.844 42.036C164.091 42.2082 164.197 42.4839 164.197 42.8284C164.197 43.0007 164.162 43.173 164.091 43.3453C164.021 43.4831 163.915 43.6209 163.773 43.7243C163.632 43.8277 163.491 43.8966 163.314 43.9655C163.173 43.9655 162.997 43.9655 162.75 43.9655Z" fill="#F28C35"/>
<path d="M167.692 43.9999C167.41 43.9999 167.163 43.9654 166.951 43.8965C166.739 43.8276 166.527 43.6898 166.386 43.5519C166.209 43.3797 166.103 43.2074 165.998 42.9662C165.927 42.725 165.856 42.4494 165.856 42.1737V39.6584H166.351V42.1393C166.351 42.6216 166.456 42.9662 166.704 43.2074C166.951 43.4486 167.268 43.5864 167.692 43.5864C168.116 43.5864 168.433 43.483 168.681 43.2418C168.928 43.0007 169.034 42.6561 169.034 42.1737V39.6584H169.528V42.1393C169.528 42.4494 169.493 42.725 169.387 42.9662C169.316 43.2074 169.175 43.4141 168.998 43.5519C168.822 43.7242 168.645 43.8276 168.433 43.8965C168.222 43.9654 167.975 43.9999 167.692 43.9999Z" fill="#F28C35"/>
<path d="M171.364 39.5896H173.27C173.553 39.5896 173.8 39.6241 174.012 39.693C174.223 39.7619 174.4 39.8652 174.541 40.0031C174.647 40.1064 174.718 40.2443 174.788 40.3821C174.859 40.5199 174.894 40.6922 174.894 40.8645C174.894 41.0367 174.859 41.209 174.788 41.3468C174.718 41.4847 174.647 41.6225 174.541 41.7259C174.435 41.8292 174.294 41.9326 174.153 42.0015C174.012 42.0704 173.835 42.1049 173.659 42.1393L175.035 43.8966H174.4L173.129 42.2082H171.893V43.8966H171.399V39.5896H171.364ZM173.2 41.7948C173.376 41.7948 173.517 41.7603 173.659 41.7259C173.8 41.6914 173.906 41.6225 174.012 41.5536C174.117 41.4847 174.188 41.3813 174.259 41.2779C174.329 41.1746 174.329 41.0367 174.329 40.8989C174.329 40.6233 174.223 40.4165 174.047 40.2787C173.835 40.1409 173.553 40.0375 173.2 40.0375H171.823V41.7948H173.2Z" fill="#F28C35"/>
</g>
<defs>
<clipPath id="clip0_132_4318">
<rect width="175" height="44" fill="white"/>
</clipPath>
</defs>
</svg>
