<svg width="16" height="9" viewBox="0 0 16 9" fill="none" xmlns="http://www.w3.org/2000/svg">
<path d="M8 0.666749C8.25312 0.666255 8.49843 0.754411 8.69333 0.915916L15.1933 6.33258C15.654 6.7155 15.7171 7.39939 15.3342 7.86008C14.9513 8.32078 14.2674 8.38383 13.8067 8.00092L8 3.14758L2.19333 7.82758C1.96952 8.00933 1.6825 8.09437 1.3958 8.06387C1.10911 8.03337 0.846397 7.88985 0.665834 7.66508C0.465272 7.4399 0.367641 7.14132 0.396424 6.84114C0.425208 6.54097 0.577801 6.26638 0.8175 6.08342L7.3175 0.850916C7.51801 0.71494 7.75831 0.650097 8 0.666749Z" fill="white"/>
</svg>
