<svg width="90" height="90" viewBox="0 0 90 90" fill="none" xmlns="http://www.w3.org/2000/svg">
<g filter="url(#filter0_d_5_1444)">
<circle cx="45" cy="45" r="35" fill="#1BD741"/>
<path d="M52.79 47.4642L52.7768 47.5701C49.57 46.0239 49.2353 45.8164 48.8197 46.4179C48.5331 46.8352 47.6953 47.7798 47.4437 48.0594C47.1878 48.3348 46.934 48.3559 46.5009 48.1653C46.0634 47.9535 44.6591 47.5087 42.9966 46.0684C41.7016 44.9459 40.8331 43.5691 40.575 43.1455C40.1463 42.4317 41.0409 42.33 41.8547 40.8389C42.0012 40.5424 41.9269 40.3094 41.8175 40.0997C41.7081 39.8879 40.8375 37.8122 40.4722 36.984C40.1222 36.1601 39.7613 36.2639 39.4922 36.2639C38.6522 36.194 38.0375 36.2046 37.4972 36.7489C35.1435 39.2546 35.7363 41.8365 37.7509 44.5858C41.7081 49.6014 43.8169 50.5248 47.6734 51.8063C48.7147 52.1261 49.664 52.0816 50.4143 51.9778C51.2522 51.8486 52.9912 50.959 53.3543 49.9636C53.7262 48.9681 53.7262 48.142 53.6168 47.9514C53.514 47.7608 53.2275 47.6549 52.79 47.4642Z" fill="white"/>
<path d="M57.1857 32.1305C45.9726 21.6355 27.4139 29.2478 27.4073 44.0551C27.4073 47.014 28.2079 49.901 29.7326 52.449L27.2607 61.1499L36.4986 58.818C48.0267 64.8459 62.2542 56.8418 62.2607 44.0636C62.2607 39.5797 60.4517 35.3584 57.1639 32.1877L57.1857 32.1305ZM59.347 44.017C59.3382 54.7958 47.1189 61.5248 37.4545 56.0242L36.9295 55.7214L31.4607 57.0981L32.9264 51.9512L32.5786 51.4217C26.5629 42.1531 33.4732 30.0378 44.8657 30.0378C48.7354 30.0378 52.3689 31.4993 55.1054 34.1469C57.8398 36.7711 59.347 40.2892 59.347 44.017Z" fill="white"/>
</g>
<defs>
<filter id="filter0_d_5_1444" x="0" y="0" width="90" height="90" filterUnits="userSpaceOnUse" color-interpolation-filters="sRGB">
<feFlood flood-opacity="0" result="BackgroundImageFix"/>
<feColorMatrix in="SourceAlpha" type="matrix" values="0 0 0 0 0 0 0 0 0 0 0 0 0 0 0 0 0 0 127 0" result="hardAlpha"/>
<feOffset/>
<feGaussianBlur stdDeviation="5"/>
<feComposite in2="hardAlpha" operator="out"/>
<feColorMatrix type="matrix" values="0 0 0 0 0 0 0 0 0 0 0 0 0 0 0 0 0 0 0.1 0"/>
<feBlend mode="normal" in2="BackgroundImageFix" result="effect1_dropShadow_5_1444"/>
<feBlend mode="normal" in="SourceGraphic" in2="effect1_dropShadow_5_1444" result="shape"/>
</filter>
</defs>
</svg>
