<svg width="21" height="22" viewBox="0 0 21 22" fill="none" xmlns="http://www.w3.org/2000/svg">
<path d="M15.318 12.9894L15.3101 13.0549C13.386 12.0991 13.1852 11.9707 12.9358 12.3426C12.7639 12.6005 12.2612 13.1845 12.1103 13.3574C11.9567 13.5276 11.8044 13.5407 11.5446 13.4228C11.2821 13.2919 10.4394 13.0169 9.44195 12.1266C8.66495 11.4326 8.14389 10.5815 7.98902 10.3197C7.73177 9.87841 8.26858 9.81556 8.75683 8.89377C8.84477 8.71047 8.80014 8.56644 8.73452 8.43681C8.66889 8.30588 8.14652 7.02271 7.92733 6.51076C7.71733 6.00142 7.50077 6.06558 7.33933 6.06558C6.83534 6.02237 6.46652 6.02892 6.14234 6.36542C4.73009 7.91438 5.08578 9.51048 6.29459 11.21C8.66889 14.3106 9.93414 14.8814 12.2481 15.6736C12.8728 15.8713 13.4424 15.8438 13.8926 15.7796C14.3953 15.6998 15.4387 15.1499 15.6566 14.5345C15.8797 13.9191 15.8797 13.4084 15.8141 13.2906C15.7524 13.1727 15.5805 13.1073 15.318 12.9894Z" fill="#1BD741"/>
<path d="M17.955 3.51068C11.2271 -2.97712 0.0918755 1.72866 0.087938 10.8823C0.087938 12.7114 0.568313 14.4961 1.48313 16.0712L0 21.45L5.54269 20.0084C12.4596 23.7348 20.9961 18.7868 21 10.8875C21 8.11564 19.9146 5.50612 17.9419 3.54603L17.955 3.51068ZM19.2517 10.8587C19.2465 17.522 11.9149 21.6817 6.11625 18.2814L5.80125 18.0941L2.52 18.9452L3.39938 15.7635L3.19069 15.4362C-0.418688 9.70649 3.7275 2.21705 10.563 2.21705C12.8848 2.21705 15.0649 3.1205 16.7068 4.75717C18.3474 6.37945 19.2517 8.55427 19.2517 10.8587Z" fill="#1BD741"/>
</svg>
